<?xml version="1.0" encoding="UTF-8"?>
<svg width="73px" height="112px" viewBox="0 0 73 112" version="1.1" xmlns="http://www.w3.org/2000/svg" xmlns:xlink="http://www.w3.org/1999/xlink">
    <!-- Generator: Sketch 52.6 (67491) - http://www.bohemiancoding.com/sketch -->
    <title>astronaut_green</title>
    <desc>Created with Sketch.</desc>
    <g id="Page-1" stroke="none" stroke-width="1" fill="none" fill-rule="evenodd">
        <g id="00_00_superluminar_home" transform="translate(-264.000000, -408.000000)" fill-rule="nonzero">
            <g id="01_content" transform="translate(37.000000, 83.000000)">
                <g id="illu_astronauts" transform="translate(227.000000, 156.000000)">
                    <g id="astronaut_green" transform="translate(36.500000, 225.000000) scale(-1, 1) translate(-36.500000, -225.000000) translate(0.000000, 169.000000)">
                        <path d="M9.1631917,39.0949342 L5.05532205,31.472847 C2.49763098,17.7276848 6.3728207,8.42632389 16.6808912,3.56876409 C26.9889617,-1.28879571 35.2000274,-0.180996321 41.3140882,6.89216226 C47.5200013,16.2859845 50.6229579,22.6211728 50.6229579,25.8977272 C50.6229579,30.8125588 52.9810047,27.5790105 51.6503681,30.8125588 C50.7632771,32.9682577 38.0006,37.501016 13.3623369,44.4108336 L25.6404117,77.0842849 C23.895996,79.359081 22.4391174,80.6834249 21.2697758,81.0573164 C19.5157635,81.6181536 12.1103791,81.0573164 11.8324471,80.5241173 C5.52211361,68.4180483 0.598360656,46.7805514 0.598360656,44.4108336 C0.598360656,42.8310218 3.45330434,41.0590553 9.1631917,39.0949342 Z" id="Path-21" fill="#FFFFFF"></path>
                        <path d="M8.58894373,38.5615343 C8.83668148,38.4793912 9.10338971,38.615806 9.18465325,38.8662254 C9.26591678,39.1166447 9.13096276,39.3862399 8.88322501,39.4683831 C3.56488109,41.2318026 0.944170324,43.0454072 0.944170324,44.7338756 C0.944170324,48.0124643 10.9697109,79.6522089 12.2600366,80.0478635 C12.3965603,80.0911141 12.5572938,80.1397474 12.7778623,80.2010833 C13.1366249,80.3008485 13.5316418,80.3990896 13.9595078,80.4910442 C15.763758,80.8788038 17.5980154,81.0448384 19.2988355,80.8660659 C22.2560349,80.555236 24.3856694,79.2475073 25.4182256,76.6757362 C25.5162721,76.4315334 25.7916,76.3139106 26.0331877,76.4130184 C26.2747755,76.5121262 26.3911387,76.7904344 26.2930922,77.0346372 C25.1138674,79.9717134 22.6722402,81.4710251 19.3964876,81.815338 C17.5837644,82.0058725 15.6560445,81.8313779 13.7631538,81.4245681 C13.316385,81.328551 12.9034487,81.2258533 12.5274219,81.1212874 C12.294922,81.0566335 12.1229801,81.0046089 11.9859573,80.9611579 C10.1339061,80.3932605 0,48.4115234 0,44.7338756 C1.83441936e-16,42.450614 2.88862204,40.4516074 8.58894373,38.5615343 Z" id="Path-8" fill="#393F4D"></path>
                        <path d="M32.5822589,6.04412457 L32.6797125,6.04394327 C43.7159677,6.02341225 52.679264,14.9534211 52.699795,25.9896764 C52.699841,26.0143964 52.6998411,26.0391164 52.6997953,26.0638364 L52.6357471,60.6686688 C52.6153222,71.7040976 43.6744812,80.6450234 32.6390526,80.6655529 L32.541599,80.6657341 C21.5053438,80.6862652 12.5420475,71.7562563 12.5215165,60.720001 C12.5214705,60.6952811 12.5214704,60.670561 12.5215161,60.645841 L12.5855644,26.0410086 C12.6059893,15.0055798 21.5468303,6.06465405 32.5822589,6.04412457 Z" id="Rectangle" fill="#FF3B61" transform="translate(32.610656, 43.354839) rotate(-18.000000) translate(-32.610656, -43.354839) "></path>
                        <path d="M9.83894654,31.4426462 C9.67964839,31.6533383 9.3787762,31.695705 9.16692969,31.5372749 C8.95508319,31.3788448 8.91248433,31.0796122 9.07178248,30.8689201 C16.7534565,20.7089277 22.5773023,14.6091064 26.6007524,12.5432027 C32.1210558,9.70871618 40.5403459,6.62365591 42.4669537,6.62365591 C44.7291932,6.62365591 53.3621285,21.6445307 52.6093888,24.9778857 C51.9037227,28.1027849 36.024343,34.8830498 28.2189571,36.6031386 C24.7334758,37.3712413 19.3739253,37.531897 12.1238894,37.0920269 C11.8593249,37.0759754 11.6579366,36.8496599 11.6740761,36.5865371 C11.6902155,36.3234144 11.917771,36.1231235 12.1823355,36.139175 C19.3505292,36.5740796 24.632326,36.4157546 28.0113096,35.6711211 C35.3671995,34.0500886 51.0932769,27.3352816 51.6728639,24.7686979 C52.3042142,21.9728912 44.0312105,7.57827917 42.4669537,7.57827917 C40.7436049,7.57827917 32.4287179,10.6250833 27.0410835,13.3914488 C23.1885644,15.3695853 17.4353746,21.3954024 9.83894654,31.4426462 Z" id="Path-11" fill="#393F4D"></path>
                        <path d="M9.36147758,46.099412 C9.10257588,46.0492247 8.93374444,45.8005248 8.98438201,45.5439252 C9.03501958,45.2873256 9.28595073,45.1199954 9.54485243,45.1701827 C22.0061836,47.5857738 28.970086,51.2520895 30.3907095,56.2882163 C31.6934124,60.906313 32.1709418,66.6733894 31.1943029,70.7225572 C29.858727,76.2598869 26.0073922,78.4817374 19.5300718,76.1696916 C19.2818706,76.0810975 19.1531278,75.8098599 19.2425168,75.5638657 C19.3319057,75.3178714 19.6055767,75.1902734 19.8537779,75.2788675 C25.7814457,77.3947177 29.0587952,75.5040015 30.2651518,70.5024184 C31.1982765,66.6336617 30.7334222,61.0196616 29.47066,56.5431549 C28.1812272,51.9721008 21.4934498,48.4511578 9.36147758,46.099412 Z" id="Path-5" fill="#393F4D"></path>
                        <path d="M14.2903378,49.0556536 C14.3964942,48.8168129 14.6766852,48.7090224 14.916162,48.8148969 C15.1556387,48.9207714 15.2637162,49.2002182 15.1575598,49.4390589 C11.0584818,58.6615523 11.4220315,64.0880636 16.0489147,65.9439173 C22.4026139,68.4924008 28.7155332,61.6587879 29.5700928,53.1158146 C29.5960973,52.8558499 29.8284823,52.6661316 30.0891392,52.692067 C30.3497962,52.7180024 30.5400196,52.9497702 30.5140152,53.2097349 C29.605882,62.2882787 22.789207,69.6671975 15.6949644,66.8216802 C10.404421,64.6996309 10.0026435,58.7025139 14.2903378,49.0556536 Z" id="Path-6" fill="#393F4D"></path>
                        <path d="M51.0415902,36.455977 C50.8327405,36.2935397 50.7998772,35.9984603 50.9681881,35.7968988 C51.136499,35.5953373 51.4422481,35.5636209 51.6510978,35.7260582 C53.7795482,37.3815055 55.9979316,38.202339 58.3191682,38.202339 C63.8453302,38.202339 70.2335751,33.2443427 70.2335751,25.7590455 C70.2335751,25.500177 70.4510176,25.2903226 70.7192465,25.2903226 C70.9874755,25.2903226 71.204918,25.500177 71.204918,25.7590455 C71.204918,33.8125396 64.3409058,39.1397849 58.3191682,39.1397849 C55.7662768,39.1397849 53.3361107,38.2405888 51.0415902,36.455977 Z" id="Path-7" fill="#393F4D"></path>
                        <path d="M17.2675972,81.8924731 L18.1621516,82.1210818 C17.5311399,84.7971466 17.5311399,86.4734446 18.0580946,87.0865494 C18.7982675,87.9477309 19.2687574,88.5319345 19.8210201,89.3301248 C21.0322083,91.0806664 21.8067305,92.7835029 21.9601457,94.4159179 C21.9781302,94.6072823 21.987249,94.796733 21.987249,94.984171 C21.987249,96.233602 21.5106498,97.4900562 20.4929587,99.3412666 C20.3597115,99.5836473 20.2332752,99.8086554 20.0174005,100.189394 C18.6100335,102.671569 18.1754309,103.652651 18.1754309,104.745548 C18.1754309,105.859177 18.8286084,106.721792 20.6318778,108.3432 C20.9340367,108.614341 21.0812142,108.74687 21.2348724,108.887548 C22.4921723,110.038634 23.1153856,110.821299 23.3360656,111.775548 L22.4405406,112 C22.2792192,111.302425 21.7451272,110.631684 20.6265857,109.607634 C20.4762448,109.469994 20.3323166,109.340391 20.0297978,109.068918 C18.017205,107.259297 17.254318,106.251795 17.254318,104.745548 C17.254318,103.405162 17.7181087,102.35819 19.2241665,99.7019536 C19.438073,99.3246865 19.562862,99.1026098 19.6935132,98.8649515 C20.6355674,97.1513267 21.0661361,96.0162224 21.0661361,94.984171 C21.0661361,94.8283412 21.0585161,94.6700281 21.04341,94.5092922 C20.9089413,93.0784773 20.1983259,91.516144 19.0736107,89.8905827 C18.5450767,89.1266876 18.0917032,88.5637373 17.3716543,87.7259699 C16.5664885,86.78917 16.5664885,84.8658133 17.2675972,81.8924731 Z" id="Path-9" fill="#393F4D"></path>
                        <path d="M5.38530601,31.9931309 C5.13365939,32.0622568 4.87340495,31.9150812 4.80401144,31.664405 C4.73461793,31.4137288 4.88236327,31.1544779 5.13400988,31.085352 C8.47664984,30.1671476 10.7099343,30.9297635 11.6282534,33.3990623 C12.7526576,36.4225103 10.880474,39.1397849 8.92976682,39.1397849 C8.66872759,39.1397849 8.45711348,38.9289869 8.45711348,38.6689543 C8.45711348,38.4089216 8.66872759,38.1981236 8.92976682,38.1981236 C10.218866,38.1981236 11.638591,36.1375443 10.7418193,33.7261849 C10.0175343,31.7786307 8.30056649,31.1923252 5.38530601,31.9931309 Z" id="Path-10" fill="#393F4D"></path>
                        <path d="M6.22449366,31.0283382 L5.31145159,31.311828 C4.16523307,27.6747145 3.59016393,24.6976422 3.59016393,22.3720869 C3.59016393,19.30326 5.1801711,14.2758567 8.2547691,10.1717634 C12.7988938,4.10608849 19.9987118,0.372885447 30.2289243,0.00515590609 C35.3879127,-0.180286227 42.4836066,4.68267027 42.4836066,7.15640803 L41.5269366,7.15640803 C41.5269366,5.3021276 34.9374644,0.786104596 30.2635464,0.954110658 C20.3226381,1.31144103 13.3928286,4.904641 9.02245711,10.7383833 C6.07381769,14.6743422 4.54683387,19.5024736 4.54683387,22.3720869 C4.54683387,24.5869659 5.10474721,27.4752244 6.22449366,31.0283382 Z" id="Path-12" fill="#393F4D"></path>
                        <path d="M25.0743894,22.1029199 C25.0218222,22.2420326 24.8617282,22.3138988 24.7168095,22.2634376 C24.5718908,22.2129764 24.4970252,22.0592964 24.5495924,21.9201837 C25.3970875,19.6773928 26.9537978,18.8383092 29.1222501,19.476169 C29.2696434,19.5195254 29.352515,19.6693715 29.3073491,19.8108597 C29.2621833,19.9523479 29.1060832,20.0318994 28.9586899,19.988543 C27.0866239,19.4378665 25.8243482,20.1182468 25.0743894,22.1029199 Z" id="Path-13" fill="#393F4D"></path>
                        <path d="M37.0059567,16.6144052 C36.9161513,16.736034 36.7417913,16.7639529 36.6165128,16.6767637 C36.4912342,16.5895746 36.4624776,16.4202941 36.552283,16.2986653 C37.4659171,15.0612763 38.8098524,14.7468811 40.5057685,15.3530079 C40.6504202,15.404707 40.7245156,15.5604646 40.6712652,15.7009022 C40.6180148,15.8413399 40.4575835,15.9132767 40.3129318,15.8615776 C38.8406571,15.3353811 37.764439,15.5871476 37.0059567,16.6144052 Z" id="Path-14" fill="#393F4D"></path>
                        <path d="M38.3072614,29.7539167 C38.544411,29.678746 38.7974244,29.8106007 38.8723826,30.0484224 C38.9473409,30.2862441 38.8158588,30.5399746 38.5787093,30.6151453 C37.7622973,30.8739282 36.8164145,31.0020025 35.7409661,31.0020025 C34.6500609,31.0020025 33.5985975,30.7926011 32.5898991,30.3744703 C32.3600475,30.279191 32.2507368,30.0150922 32.3457468,29.7845892 C32.4407568,29.5540861 32.7041091,29.4444656 32.9339607,29.5397449 C33.8335729,29.9126568 34.7681337,30.0987767 35.7409661,30.0987767 C36.7292553,30.0987767 37.5847186,29.9829453 38.3072614,29.7539167 Z" id="Path-15" fill="#393F4D"></path>
                        <path d="M29.3196721,23.3441192 C29.3196721,23.0887434 29.5205935,22.8817204 29.7684426,22.8817204 C30.0162917,22.8817204 30.2172131,23.0887434 30.2172131,23.3441192 L30.2172131,26.0322248 C30.2172131,26.2876007 30.0162917,26.4946237 29.7684426,26.4946237 C29.5205935,26.4946237 29.3196721,26.2876007 29.3196721,26.0322248 L29.3196721,23.3441192 Z" id="Path-15-Copy-2" fill="#393F4D"></path>
                        <path d="M39.4918033,20.9355171 C39.4918033,20.6801413 39.6927247,20.4731183 39.9405738,20.4731183 C40.1884229,20.4731183 40.3893443,20.6801413 40.3893443,20.9355171 L40.3893443,23.6236227 C40.3893443,23.8789985 40.1884229,24.0860215 39.9405738,24.0860215 C39.6927247,24.0860215 39.4918033,23.8789985 39.4918033,23.6236227 L39.4918033,20.9355171 Z" id="Path-15-Copy" fill="#393F4D"></path>
                        <path d="M8.97651152,38.6893488 L9.93107556,38.705102 C9.88745131,41.4274584 11.2950016,42.998081 14.2884163,43.523809 C17.0228935,44.0040602 27.8616797,42.012313 36.276334,39.2829223 C43.6892288,36.8784638 50.5991596,33.2693385 51.1989697,31.7275615 C52.0661796,29.4984486 51.8097701,27.8323322 50.4571659,26.6181569 L51.0896909,25.8924731 C52.7686137,27.3995706 53.091895,29.5002114 52.0869592,32.0833405 C51.3321048,34.02365 44.2954969,37.69894 36.5669902,40.2057708 C28.0121969,42.9806173 17.0582881,44.9935196 14.1256148,44.4784596 C10.6861815,43.8743982 8.9249171,41.9090816 8.97651152,38.6893488 Z" id="Path-16" fill="#393F4D"></path>
                        <path d="M34.1083371,46.4290638 C34.0908482,46.2224929 34.2035851,46.0276468 34.3879086,45.945873 L45.5695206,40.9852288 C45.7865974,40.8889242 46.0390181,40.9763726 46.1561319,41.188454 L49.6027068,47.4298559 C49.7364496,47.6720508 49.6431847,47.9806907 49.399867,48.1011101 C39.269294,53.1147903 35.6960154,54.70599 35.1799936,54.0553334 C34.8253689,53.6081839 34.5185848,51.2747416 34.1083371,46.4290638 Z M36.3871703,53.0987996 C36.9749964,52.890673 37.8350653,52.5348055 38.9634104,52.0323475 C41.1555035,51.056197 44.3510569,49.5310064 48.5482007,47.4575461 L45.5548624,42.0369103 L35.0634196,46.6913657 C35.3742588,50.2980714 35.6621765,52.6210097 35.833316,53.2718964 C35.9704643,53.2383281 36.1562981,53.1805426 36.3871703,53.0987996 Z" id="Path-17" fill="#393F4D"></path>
                        <path d="M17.4784232,62.6594396 C17.5075115,62.4368517 17.6882456,62.2645698 17.9125584,62.2456071 C26.930153,61.4832887 33.4214284,60.9323635 37.3862918,60.5928394 C41.9650278,60.2007473 51.454542,54.5816106 55.9748296,50.7930576 C56.5236881,50.3330471 57.1561159,50.6593349 57.7589738,51.3956885 C58.2265485,51.9668021 58.701492,52.8201774 59.077316,53.7619875 C59.9818943,56.0288491 60.1448003,58.2088567 59.1985686,59.418464 C53.2255502,67.0540219 24.508349,74.1354003 20.1673043,70.8159938 C17.8888682,69.0737736 16.9985132,66.3317842 17.4784232,62.6594396 Z M20.7497601,70.0586495 C24.6299733,73.0256785 52.7680364,66.0871098 58.4438561,58.8314734 C59.1182545,57.9693618 58.9781968,56.0951098 58.1879784,54.1148329 C57.8459035,53.2575974 57.4174158,52.4876937 57.0175137,51.999238 C56.7173238,51.6325746 56.5585002,51.5506329 56.5906949,51.5236498 C51.9256022,55.4335672 42.3065427,61.1294131 37.468191,61.5437369 C33.5601636,61.878394 27.1983175,62.4183774 18.3825638,63.1636946 C18.0499893,66.3239236 18.8443381,68.6016568 20.7497601,70.0586495 Z" id="Path-18" fill="#393F4D"></path>
                        <path d="M38.2961833,59.5031913 C38.2789749,59.2495053 38.4654612,59.029539 38.7127122,59.0118827 C38.9599632,58.9942264 39.1743499,59.1855662 39.1915583,59.4392522 L39.7009323,66.9484216 C39.7181408,67.2021076 39.5316544,67.4220739 39.2844035,67.4397302 C39.0371525,67.4573865 38.8227658,67.2660467 38.8055573,67.0123607 L38.2961833,59.5031913 Z" id="Path-19" fill="#393F4D"></path>
                        <path d="M49.6650358,55.890288 C49.6478274,55.6366021 49.8343137,55.4166358 50.0815647,55.3989795 C50.3288156,55.3813232 50.5432024,55.572663 50.5604108,55.8263489 L51.0697848,63.3355184 C51.0869932,63.5892043 50.9005069,63.8091707 50.6532559,63.826827 C50.4060049,63.8444833 50.1916182,63.6531434 50.1744098,63.3994575 L49.6650358,55.890288 Z" id="Path-19-Copy" fill="#393F4D"></path>
                        <path d="M51.5615944,95.2179964 C52.2987674,94.9546832 53.4277221,94.4178543 54.9380332,93.6103394 C55.1714109,93.4855598 55.4630629,93.5711806 55.5894562,93.8015787 C55.7158495,94.0319768 55.6291215,94.3199052 55.3957438,94.4446848 C53.8466823,95.2729183 52.6811076,95.8271603 51.8885944,96.1102406 C51.458292,96.2639417 51.1252359,96.343501 50.8657379,96.3440831 C50.4364365,96.3450462 50.0972693,96.1050326 50.0972693,95.6666923 C50.0972693,89.5127188 47.2269714,84.0027997 41.4545584,79.1140854 C41.2531187,78.9434841 41.2299077,78.6439702 41.4027153,78.4451023 C41.5755229,78.2462344 41.8789103,78.2233198 42.08035,78.3939211 C47.9630799,83.3760638 50.9651707,89.0417807 51.0562527,95.3692615 C51.1854353,95.3415784 51.3557226,95.2915323 51.5615944,95.2179964 Z" id="Path-20" fill="#393F4D"></path>
                        <path d="M67.8178926,85.9692837 C68.525891,85.4935881 69.603953,84.634566 71.0445788,83.3966549 C71.2406234,83.2281963 71.5322086,83.2552349 71.6958526,83.4570472 C71.8594967,83.6588596 71.8332308,83.9590234 71.6371863,84.127482 C70.1709097,85.3874345 69.0687949,86.2656223 68.3233422,86.766483 C67.9242531,87.0346261 67.6183423,87.2019456 67.3812622,87.2723796 C66.9427369,87.4026609 66.5181442,87.2105297 66.5181442,86.6917372 C66.5181442,80.5174819 63.7564058,74.9894038 58.2023151,70.0845777 C58.0084941,69.9134141 57.9861611,69.6129131 58.1524328,69.4133898 C58.3187045,69.2138665 58.6106173,69.1908764 58.8044382,69.36204 C64.4096659,74.3120251 67.2968151,79.934572 67.4375087,86.2084304 C67.545622,86.1463855 67.6731168,86.0665567 67.8178926,85.9692837 Z" id="Path-20-Copy" fill="#393F4D" transform="translate(64.922131, 78.279570) rotate(-8.000000) translate(-64.922131, -78.279570) "></path>
                        <path d="M9.1631917,39.0949342 L5.05532205,31.472847 C2.49763098,17.7276848 6.3728207,8.42632389 16.6808912,3.56876409 C26.9889617,-1.28879571 35.2000274,-0.180996321 41.3140882,6.89216226 C47.5200013,16.2859845 50.6229579,22.6211728 50.6229579,25.8977272 C50.6229579,30.8125588 52.9810047,27.5790105 51.6503681,30.8125588 C50.7632771,32.9682577 38.0006,37.501016 13.3623369,44.4108336 L25.6404117,77.0842849 C23.895996,79.359081 22.4391174,80.6834249 21.2697758,81.0573164 C19.5157635,81.6181536 12.1103791,81.0573164 11.8324471,80.5241173 C5.52211361,68.4180483 0.598360656,46.7805514 0.598360656,44.4108336 C0.598360656,42.8310218 3.45330434,41.0590553 9.1631917,39.0949342 Z" id="Path-21" fill="#FFFFFF"></path>
                        <path d="M8.58894373,38.5615343 C8.83668148,38.4793912 9.10338971,38.615806 9.18465325,38.8662254 C9.26591678,39.1166447 9.13096276,39.3862399 8.88322501,39.4683831 C3.56488109,41.2318026 0.944170324,43.0454072 0.944170324,44.7338756 C0.944170324,48.0124643 10.9697109,79.6522089 12.2600366,80.0478635 C12.3965603,80.0911141 12.5572938,80.1397474 12.7778623,80.2010833 C13.1366249,80.3008485 13.5316418,80.3990896 13.9595078,80.4910442 C15.763758,80.8788038 17.5980154,81.0448384 19.2988355,80.8660659 C22.2560349,80.555236 24.3856694,79.2475073 25.4182256,76.6757362 C25.5162721,76.4315334 25.7916,76.3139106 26.0331877,76.4130184 C26.2747755,76.5121262 26.3911387,76.7904344 26.2930922,77.0346372 C25.1138674,79.9717134 22.6722402,81.4710251 19.3964876,81.815338 C17.5837644,82.0058725 15.6560445,81.8313779 13.7631538,81.4245681 C13.316385,81.328551 12.9034487,81.2258533 12.5274219,81.1212874 C12.294922,81.0566335 12.1229801,81.0046089 11.9859573,80.9611579 C10.1339061,80.3932605 0,48.4115234 0,44.7338756 C1.83441936e-16,42.450614 2.88862204,40.4516074 8.58894373,38.5615343 Z" id="Path-8" fill="#393F4D"></path>
                        <path d="M32.5822589,6.04412457 L32.6797125,6.04394327 C43.7159677,6.02341225 52.679264,14.9534211 52.699795,25.9896764 C52.699841,26.0143964 52.6998411,26.0391164 52.6997953,26.0638364 L52.6357471,60.6686688 C52.6153222,71.7040976 43.6744812,80.6450234 32.6390526,80.6655529 L32.541599,80.6657341 C21.5053438,80.6862652 12.5420475,71.7562563 12.5215165,60.720001 C12.5214705,60.6952811 12.5214704,60.670561 12.5215161,60.645841 L12.5855644,26.0410086 C12.6059893,15.0055798 21.5468303,6.06465405 32.5822589,6.04412457 Z" id="Rectangle" fill="#03FFB7" transform="translate(32.610656, 43.354839) rotate(-18.000000) translate(-32.610656, -43.354839) "></path>
                        <path d="M9.83894654,31.4426462 C9.67964839,31.6533383 9.3787762,31.695705 9.16692969,31.5372749 C8.95508319,31.3788448 8.91248433,31.0796122 9.07178248,30.8689201 C16.7534565,20.7089277 22.5773023,14.6091064 26.6007524,12.5432027 C32.1210558,9.70871618 40.5403459,6.62365591 42.4669537,6.62365591 C44.7291932,6.62365591 53.3621285,21.6445307 52.6093888,24.9778857 C51.9037227,28.1027849 36.024343,34.8830498 28.2189571,36.6031386 C24.7334758,37.3712413 19.3739253,37.531897 12.1238894,37.0920269 C11.8593249,37.0759754 11.6579366,36.8496599 11.6740761,36.5865371 C11.6902155,36.3234144 11.917771,36.1231235 12.1823355,36.139175 C19.3505292,36.5740796 24.632326,36.4157546 28.0113096,35.6711211 C35.3671995,34.0500886 51.0932769,27.3352816 51.6728639,24.7686979 C52.3042142,21.9728912 44.0312105,7.57827917 42.4669537,7.57827917 C40.7436049,7.57827917 32.4287179,10.6250833 27.0410835,13.3914488 C23.1885644,15.3695853 17.4353746,21.3954024 9.83894654,31.4426462 Z" id="Path-11" fill="#393F4D"></path>
                        <path d="M9.36147758,46.099412 C9.10257588,46.0492247 8.93374444,45.8005248 8.98438201,45.5439252 C9.03501958,45.2873256 9.28595073,45.1199954 9.54485243,45.1701827 C22.0061836,47.5857738 28.970086,51.2520895 30.3907095,56.2882163 C31.6934124,60.906313 32.1709418,66.6733894 31.1943029,70.7225572 C29.858727,76.2598869 26.0073922,78.4817374 19.5300718,76.1696916 C19.2818706,76.0810975 19.1531278,75.8098599 19.2425168,75.5638657 C19.3319057,75.3178714 19.6055767,75.1902734 19.8537779,75.2788675 C25.7814457,77.3947177 29.0587952,75.5040015 30.2651518,70.5024184 C31.1982765,66.6336617 30.7334222,61.0196616 29.47066,56.5431549 C28.1812272,51.9721008 21.4934498,48.4511578 9.36147758,46.099412 Z" id="Path-5" fill="#393F4D"></path>
                        <path d="M14.2903378,49.0556536 C14.3964942,48.8168129 14.6766852,48.7090224 14.916162,48.8148969 C15.1556387,48.9207714 15.2637162,49.2002182 15.1575598,49.4390589 C11.0584818,58.6615523 11.4220315,64.0880636 16.0489147,65.9439173 C22.4026139,68.4924008 28.7155332,61.6587879 29.5700928,53.1158146 C29.5960973,52.8558499 29.8284823,52.6661316 30.0891392,52.692067 C30.3497962,52.7180024 30.5400196,52.9497702 30.5140152,53.2097349 C29.605882,62.2882787 22.789207,69.6671975 15.6949644,66.8216802 C10.404421,64.6996309 10.0026435,58.7025139 14.2903378,49.0556536 Z" id="Path-6" fill="#393F4D"></path>
                        <path d="M51.0415902,36.455977 C50.8327405,36.2935397 50.7998772,35.9984603 50.9681881,35.7968988 C51.136499,35.5953373 51.4422481,35.5636209 51.6510978,35.7260582 C53.7795482,37.3815055 55.9979316,38.202339 58.3191682,38.202339 C63.8453302,38.202339 70.2335751,33.2443427 70.2335751,25.7590455 C70.2335751,25.500177 70.4510176,25.2903226 70.7192465,25.2903226 C70.9874755,25.2903226 71.204918,25.500177 71.204918,25.7590455 C71.204918,33.8125396 64.3409058,39.1397849 58.3191682,39.1397849 C55.7662768,39.1397849 53.3361107,38.2405888 51.0415902,36.455977 Z" id="Path-7" fill="#393F4D"></path>
                        <path d="M17.2675972,81.8924731 L18.1621516,82.1210818 C17.5311399,84.7971466 17.5311399,86.4734446 18.0580946,87.0865494 C18.7982675,87.9477309 19.2687574,88.5319345 19.8210201,89.3301248 C21.0322083,91.0806664 21.8067305,92.7835029 21.9601457,94.4159179 C21.9781302,94.6072823 21.987249,94.796733 21.987249,94.984171 C21.987249,96.233602 21.5106498,97.4900562 20.4929587,99.3412666 C20.3597115,99.5836473 20.2332752,99.8086554 20.0174005,100.189394 C18.6100335,102.671569 18.1754309,103.652651 18.1754309,104.745548 C18.1754309,105.859177 18.8286084,106.721792 20.6318778,108.3432 C20.9340367,108.614341 21.0812142,108.74687 21.2348724,108.887548 C22.4921723,110.038634 23.1153856,110.821299 23.3360656,111.775548 L22.4405406,112 C22.2792192,111.302425 21.7451272,110.631684 20.6265857,109.607634 C20.4762448,109.469994 20.3323166,109.340391 20.0297978,109.068918 C18.017205,107.259297 17.254318,106.251795 17.254318,104.745548 C17.254318,103.405162 17.7181087,102.35819 19.2241665,99.7019536 C19.438073,99.3246865 19.562862,99.1026098 19.6935132,98.8649515 C20.6355674,97.1513267 21.0661361,96.0162224 21.0661361,94.984171 C21.0661361,94.8283412 21.0585161,94.6700281 21.04341,94.5092922 C20.9089413,93.0784773 20.1983259,91.516144 19.0736107,89.8905827 C18.5450767,89.1266876 18.0917032,88.5637373 17.3716543,87.7259699 C16.5664885,86.78917 16.5664885,84.8658133 17.2675972,81.8924731 Z" id="Path-9" fill="#393F4D"></path>
                        <path d="M5.38530601,31.9931309 C5.13365939,32.0622568 4.87340495,31.9150812 4.80401144,31.664405 C4.73461793,31.4137288 4.88236327,31.1544779 5.13400988,31.085352 C8.47664984,30.1671476 10.7099343,30.9297635 11.6282534,33.3990623 C12.7526576,36.4225103 10.880474,39.1397849 8.92976682,39.1397849 C8.66872759,39.1397849 8.45711348,38.9289869 8.45711348,38.6689543 C8.45711348,38.4089216 8.66872759,38.1981236 8.92976682,38.1981236 C10.218866,38.1981236 11.638591,36.1375443 10.7418193,33.7261849 C10.0175343,31.7786307 8.30056649,31.1923252 5.38530601,31.9931309 Z" id="Path-10" fill="#393F4D"></path>
                        <path d="M6.22449366,31.0283382 L5.31145159,31.311828 C4.16523307,27.6747145 3.59016393,24.6976422 3.59016393,22.3720869 C3.59016393,19.30326 5.1801711,14.2758567 8.2547691,10.1717634 C12.7988938,4.10608849 19.9987118,0.372885447 30.2289243,0.00515590609 C35.3879127,-0.180286227 42.4836066,4.68267027 42.4836066,7.15640803 L41.5269366,7.15640803 C41.5269366,5.3021276 34.9374644,0.786104596 30.2635464,0.954110658 C20.3226381,1.31144103 13.3928286,4.904641 9.02245711,10.7383833 C6.07381769,14.6743422 4.54683387,19.5024736 4.54683387,22.3720869 C4.54683387,24.5869659 5.10474721,27.4752244 6.22449366,31.0283382 Z" id="Path-12" fill="#393F4D"></path>
                        <path d="M25.0743894,22.1029199 C25.0218222,22.2420326 24.8617282,22.3138988 24.7168095,22.2634376 C24.5718908,22.2129764 24.4970252,22.0592964 24.5495924,21.9201837 C25.3970875,19.6773928 26.9537978,18.8383092 29.1222501,19.476169 C29.2696434,19.5195254 29.352515,19.6693715 29.3073491,19.8108597 C29.2621833,19.9523479 29.1060832,20.0318994 28.9586899,19.988543 C27.0866239,19.4378665 25.8243482,20.1182468 25.0743894,22.1029199 Z" id="Path-13" fill="#393F4D"></path>
                        <path d="M37.0059567,16.6144052 C36.9161513,16.736034 36.7417913,16.7639529 36.6165128,16.6767637 C36.4912342,16.5895746 36.4624776,16.4202941 36.552283,16.2986653 C37.4659171,15.0612763 38.8098524,14.7468811 40.5057685,15.3530079 C40.6504202,15.404707 40.7245156,15.5604646 40.6712652,15.7009022 C40.6180148,15.8413399 40.4575835,15.9132767 40.3129318,15.8615776 C38.8406571,15.3353811 37.764439,15.5871476 37.0059567,16.6144052 Z" id="Path-14" fill="#393F4D"></path>
                        <path d="M38.3072614,29.7539167 C38.544411,29.678746 38.7974244,29.8106007 38.8723826,30.0484224 C38.9473409,30.2862441 38.8158588,30.5399746 38.5787093,30.6151453 C37.7622973,30.8739282 36.8164145,31.0020025 35.7409661,31.0020025 C34.6500609,31.0020025 33.5985975,30.7926011 32.5898991,30.3744703 C32.3600475,30.279191 32.2507368,30.0150922 32.3457468,29.7845892 C32.4407568,29.5540861 32.7041091,29.4444656 32.9339607,29.5397449 C33.8335729,29.9126568 34.7681337,30.0987767 35.7409661,30.0987767 C36.7292553,30.0987767 37.5847186,29.9829453 38.3072614,29.7539167 Z" id="Path-15" fill="#393F4D"></path>
                        <path d="M29.3196721,23.3441192 C29.3196721,23.0887434 29.5205935,22.8817204 29.7684426,22.8817204 C30.0162917,22.8817204 30.2172131,23.0887434 30.2172131,23.3441192 L30.2172131,26.0322248 C30.2172131,26.2876007 30.0162917,26.4946237 29.7684426,26.4946237 C29.5205935,26.4946237 29.3196721,26.2876007 29.3196721,26.0322248 L29.3196721,23.3441192 Z" id="Path-15-Copy-2" fill="#393F4D"></path>
                        <path d="M39.4918033,20.9355171 C39.4918033,20.6801413 39.6927247,20.4731183 39.9405738,20.4731183 C40.1884229,20.4731183 40.3893443,20.6801413 40.3893443,20.9355171 L40.3893443,23.6236227 C40.3893443,23.8789985 40.1884229,24.0860215 39.9405738,24.0860215 C39.6927247,24.0860215 39.4918033,23.8789985 39.4918033,23.6236227 L39.4918033,20.9355171 Z" id="Path-15-Copy" fill="#393F4D"></path>
                        <path d="M8.97651152,38.6893488 L9.93107556,38.705102 C9.88745131,41.4274584 11.2950016,42.998081 14.2884163,43.523809 C17.0228935,44.0040602 27.8616797,42.012313 36.276334,39.2829223 C43.6892288,36.8784638 50.5991596,33.2693385 51.1989697,31.7275615 C52.0661796,29.4984486 51.8097701,27.8323322 50.4571659,26.6181569 L51.0896909,25.8924731 C52.7686137,27.3995706 53.091895,29.5002114 52.0869592,32.0833405 C51.3321048,34.02365 44.2954969,37.69894 36.5669902,40.2057708 C28.0121969,42.9806173 17.0582881,44.9935196 14.1256148,44.4784596 C10.6861815,43.8743982 8.9249171,41.9090816 8.97651152,38.6893488 Z" id="Path-16" fill="#393F4D"></path>
                        <path d="M34.1083371,46.4290638 C34.0908482,46.2224929 34.2035851,46.0276468 34.3879086,45.945873 L45.5695206,40.9852288 C45.7865974,40.8889242 46.0390181,40.9763726 46.1561319,41.188454 L49.6027068,47.4298559 C49.7364496,47.6720508 49.6431847,47.9806907 49.399867,48.1011101 C39.269294,53.1147903 35.6960154,54.70599 35.1799936,54.0553334 C34.8253689,53.6081839 34.5185848,51.2747416 34.1083371,46.4290638 Z M36.3871703,53.0987996 C36.9749964,52.890673 37.8350653,52.5348055 38.9634104,52.0323475 C41.1555035,51.056197 44.3510569,49.5310064 48.5482007,47.4575461 L45.5548624,42.0369103 L35.0634196,46.6913657 C35.3742588,50.2980714 35.6621765,52.6210097 35.833316,53.2718964 C35.9704643,53.2383281 36.1562981,53.1805426 36.3871703,53.0987996 Z" id="Path-17" fill="#393F4D"></path>
                        <path d="M17.4784232,62.6594396 C17.5075115,62.4368517 17.6882456,62.2645698 17.9125584,62.2456071 C26.930153,61.4832887 33.4214284,60.9323635 37.3862918,60.5928394 C41.9650278,60.2007473 51.454542,54.5816106 55.9748296,50.7930576 C56.5236881,50.3330471 57.1561159,50.6593349 57.7589738,51.3956885 C58.2265485,51.9668021 58.701492,52.8201774 59.077316,53.7619875 C59.9818943,56.0288491 60.1448003,58.2088567 59.1985686,59.418464 C53.2255502,67.0540219 24.508349,74.1354003 20.1673043,70.8159938 C17.8888682,69.0737736 16.9985132,66.3317842 17.4784232,62.6594396 Z M20.7497601,70.0586495 C24.6299733,73.0256785 52.7680364,66.0871098 58.4438561,58.8314734 C59.1182545,57.9693618 58.9781968,56.0951098 58.1879784,54.1148329 C57.8459035,53.2575974 57.4174158,52.4876937 57.0175137,51.999238 C56.7173238,51.6325746 56.5585002,51.5506329 56.5906949,51.5236498 C51.9256022,55.4335672 42.3065427,61.1294131 37.468191,61.5437369 C33.5601636,61.878394 27.1983175,62.4183774 18.3825638,63.1636946 C18.0499893,66.3239236 18.8443381,68.6016568 20.7497601,70.0586495 Z" id="Path-18" fill="#393F4D"></path>
                        <path d="M38.2961833,59.5031913 C38.2789749,59.2495053 38.4654612,59.029539 38.7127122,59.0118827 C38.9599632,58.9942264 39.1743499,59.1855662 39.1915583,59.4392522 L39.7009323,66.9484216 C39.7181408,67.2021076 39.5316544,67.4220739 39.2844035,67.4397302 C39.0371525,67.4573865 38.8227658,67.2660467 38.8055573,67.0123607 L38.2961833,59.5031913 Z" id="Path-19" fill="#393F4D"></path>
                        <path d="M49.6650358,55.890288 C49.6478274,55.6366021 49.8343137,55.4166358 50.0815647,55.3989795 C50.3288156,55.3813232 50.5432024,55.572663 50.5604108,55.8263489 L51.0697848,63.3355184 C51.0869932,63.5892043 50.9005069,63.8091707 50.6532559,63.826827 C50.4060049,63.8444833 50.1916182,63.6531434 50.1744098,63.3994575 L49.6650358,55.890288 Z" id="Path-19-Copy" fill="#393F4D"></path>
                        <path d="M51.5615944,95.2179964 C52.2987674,94.9546832 53.4277221,94.4178543 54.9380332,93.6103394 C55.1714109,93.4855598 55.4630629,93.5711806 55.5894562,93.8015787 C55.7158495,94.0319768 55.6291215,94.3199052 55.3957438,94.4446848 C53.8466823,95.2729183 52.6811076,95.8271603 51.8885944,96.1102406 C51.458292,96.2639417 51.1252359,96.343501 50.8657379,96.3440831 C50.4364365,96.3450462 50.0972693,96.1050326 50.0972693,95.6666923 C50.0972693,89.5127188 47.2269714,84.0027997 41.4545584,79.1140854 C41.2531187,78.9434841 41.2299077,78.6439702 41.4027153,78.4451023 C41.5755229,78.2462344 41.8789103,78.2233198 42.08035,78.3939211 C47.9630799,83.3760638 50.9651707,89.0417807 51.0562527,95.3692615 C51.1854353,95.3415784 51.3557226,95.2915323 51.5615944,95.2179964 Z" id="Path-20" fill="#393F4D"></path>
                        <path d="M67.8178926,85.9692837 C68.525891,85.4935881 69.603953,84.634566 71.0445788,83.3966549 C71.2406234,83.2281963 71.5322086,83.2552349 71.6958526,83.4570472 C71.8594967,83.6588596 71.8332308,83.9590234 71.6371863,84.127482 C70.1709097,85.3874345 69.0687949,86.2656223 68.3233422,86.766483 C67.9242531,87.0346261 67.6183423,87.2019456 67.3812622,87.2723796 C66.9427369,87.4026609 66.5181442,87.2105297 66.5181442,86.6917372 C66.5181442,80.5174819 63.7564058,74.9894038 58.2023151,70.0845777 C58.0084941,69.9134141 57.9861611,69.6129131 58.1524328,69.4133898 C58.3187045,69.2138665 58.6106173,69.1908764 58.8044382,69.36204 C64.4096659,74.3120251 67.2968151,79.934572 67.4375087,86.2084304 C67.545622,86.1463855 67.6731168,86.0665567 67.8178926,85.9692837 Z" id="Path-20-Copy" fill="#393F4D" transform="translate(64.922131, 78.279570) rotate(-8.000000) translate(-64.922131, -78.279570) "></path>
                    </g>
                </g>
            </g>
        </g>
    </g>
</svg>