<?xml version="1.0" encoding="utf-8"?>
<!-- Generator: Adobe Illustrator 23.0.0, SVG Export Plug-In . SVG Version: 6.00 Build 0)  -->
<svg version="1.1" id="Layer_1" xmlns="http://www.w3.org/2000/svg" xmlns:xlink="http://www.w3.org/1999/xlink" x="0px" y="0px"
	 viewBox="0 0 20 20" style="enable-background:new 0 0 20 20;" xml:space="preserve">
<style type="text/css">
	.st0{fill:#03FFB7;}
</style>
<title>z</title>
<desc>Created with Sketch.</desc>
<g>
	<path class="st0" d="M16.6,3.4c-1.8-1.8-4.1-2.7-6.6-2.7s-4.8,1-6.6,2.7C1.7,5.2,0.7,7.5,0.7,10s1,4.8,2.7,6.6
		c1.8,1.8,4.1,2.7,6.6,2.7s4.8-1,6.6-2.7c1.8-1.8,2.7-4.1,2.7-6.6S18.3,5.2,16.6,3.4z M10,17.7c-4.2,0-7.7-3.4-7.7-7.7
		S5.8,2.3,10,2.3s7.7,3.4,7.7,7.7S14.2,17.7,10,17.7z"/>
	<path class="st0" d="M13.3,6.9l-4.5,4.4L6.6,9.1c-0.3-0.3-0.8-0.3-1.2,0C5.2,9.3,5.2,9.5,5.2,9.7s0.1,0.4,0.2,0.6l2.8,2.8
		c0.2,0.2,0.4,0.2,0.6,0.2c0.2,0,0.4-0.1,0.6-0.2l5-5c0.2-0.2,0.2-0.4,0.2-0.6c0-0.2-0.1-0.4-0.2-0.6C14.1,6.6,13.6,6.6,13.3,6.9z"
		/>
</g>
</svg>
