<?xml version="1.0" encoding="UTF-8"?>
<svg width="636px" height="418px" viewBox="0 0 636 418" version="1.1" xmlns="http://www.w3.org/2000/svg" xmlns:xlink="http://www.w3.org/1999/xlink">
    <!-- Generator: Sketch 52.6 (67491) - http://www.bohemiancoding.com/sketch -->
    <title>cloud</title>
    <desc>Created with Sketch.</desc>
    <defs>
        <path d="M549.188589,365.387756 C555.982579,378.261279 559.828752,392.931479 559.828752,408.5 C559.828752,415.41656 559.069626,422.155816 557.630145,428.638995 C566.201949,434.490588 571.828752,444.338189 571.828752,455.5 C571.828752,467.705357 565.100637,478.339279 555.150911,483.895262 C558.057285,487.092053 559.828752,491.339152 559.828752,496 C559.828752,505.941125 551.769878,514 541.828752,514 C540.335152,514 538.884041,513.818084 537.496366,513.475199 C540.494972,527.716077 538.035063,539.4105 523.607061,544.95764 C415.203801,586.635482 129.711189,541 93.007533,541 C85.5270699,541 78.5385508,538.145632 72.0582966,533.112423 C67.8619496,534.341014 63.4223081,535 58.8287523,535 C32.871369,535 11.8287523,513.957383 11.8287523,488 C11.8287523,479.244554 14.2228091,471.04827 18.3920112,464.03006 C10.0058943,455.541338 4.82875228,443.875262 4.82875228,431 C4.82875228,422.364219 7.15781515,414.272419 11.2220609,407.318481 C5.08282104,404.451843 0.828752284,398.222717 0.828752284,391 C0.828752284,382.534375 6.67290261,375.433724 14.5468439,373.512406 C14.0363382,367.312349 13.77881,361.674676 13.77881,356.78774 C13.77881,336.594643 18.6868406,323.588805 26.7928552,313.997857 C24.9854329,309.004361 24,303.61726 24,298 C24,274.702324 40.9513044,255.363838 63.1930273,251.645426 C63.0658636,250.782043 63,249.898713 63,249 C63,244.452618 64.6862662,240.299085 67.4676064,237.130592 C66.5232667,234.944073 66,232.533144 66,230 C66,220.058875 74.0588745,212 84,212 C84.137277,212 84.274195,212.001537 84.4107379,212.004594 C82.8775629,209.355996 82,206.280481 82,203 C82,194.17807 88.3464446,186.838432 96.7227987,185.29762 C95.0113931,182.975557 94,180.10589 94,177 C94,174.922845 94.4523613,172.951345 95.2639432,171.17864 C89.8626562,169.237282 86,164.069727 86,158 C86,150.268014 92.2680135,144 100,144 C102.316503,144 104.501599,144.562618 106.426099,145.558662 C107.959751,139.490624 113.455455,135 120,135 C127.731986,135 134,141.268014 134,149 C134,150.033725 133.887964,151.041282 133.675372,152.011192 C136.918729,154.575229 139,158.544561 139,163 C139,166.661968 137.594027,169.995554 135.292443,172.490396 C139.864154,174.794528 143,179.531056 143,185 C143,187.218861 142.483812,189.31716 141.564969,191.181363 C149.721976,192.345111 156.11622,198.97747 156.915672,207.24641 C164.17431,202.656628 172.776911,200 182,200 C191.496059,200 200.334358,202.816208 207.725265,207.658994 C211.007744,204.175006 215.664248,202 220.828752,202 C227.765382,202 233.785573,205.92374 236.790917,211.672813 C245.397105,202.053841 257.905953,196 271.828752,196 C282.898623,196 293.07464,199.82704 301.105908,206.230224 C304.184105,200.723305 310.071616,197 316.828752,197 C322.241814,197 327.096802,199.389402 330.396534,203.171027 C343.506106,196.046869 358.530454,192 374.5,192 C396.330772,192 416.3952,199.56262 432.216356,212.210931 C437.580233,208.304635 444.185355,206 451.328752,206 C469.278007,206 483.828752,220.550746 483.828752,238.5 C483.828752,239.341263 483.796789,240.17506 483.73401,241.000244 C483.765571,241.000081 483.797152,241 483.828752,241 C493.769878,241 501.828752,249.058875 501.828752,259 C501.828752,260.440855 501.659457,261.84217 501.339674,263.185136 C513.309264,271.376245 521.297159,284.959856 521.803215,300.435826 C540.418572,306.688432 553.828752,324.278158 553.828752,345 C553.828752,352.30498 552.162211,359.220719 549.188589,365.387756 Z" id="path-1"></path>
        <filter x="-9.2%" y="-13.0%" width="118.4%" height="124.6%" filterUnits="objectBoundingBox" id="filter-2">
            <feOffset dx="0" dy="-3" in="SourceAlpha" result="shadowOffsetOuter1"></feOffset>
            <feGaussianBlur stdDeviation="17" in="shadowOffsetOuter1" result="shadowBlurOuter1"></feGaussianBlur>
            <feColorMatrix values="0 0 0 0 0   0 0 0 0 0   0 0 0 0 0  0 0 0 0.13 0" type="matrix" in="shadowBlurOuter1"></feColorMatrix>
        </filter>
    </defs>
    <g id="Page-1" stroke="none" stroke-width="1" fill="none" fill-rule="evenodd">
        <g id="00_01_superluminar_home_footer" transform="translate(-134.000000, -482.000000)" fill-rule="nonzero">
            <g id="footer" transform="translate(166.000000, 382.000000)">
                <g id="cloud">
                    <use fill="black" fill-opacity="1" filter="url(#filter-2)" xlink:href="#path-1"></use>
                    <use fill="#FFFFFF" xlink:href="#path-1"></use>
                </g>
            </g>
        </g>
    </g>
</svg>