<?xml version="1.0" encoding="UTF-8"?>
<svg width="636px" height="525px" viewBox="0 0 636 525" version="1.1" xmlns="http://www.w3.org/2000/svg" xmlns:xlink="http://www.w3.org/1999/xlink">
    <!-- Generator: Sketch 52.6 (67491) - http://www.bohemiancoding.com/sketch -->
    <title>Group</title>
    <desc>Created with Sketch.</desc>
    <defs>
        <path d="M549.188589,365.387756 C555.982579,378.261279 559.828752,392.931479 559.828752,408.5 C559.828752,415.41656 559.069626,422.155816 557.630145,428.638995 C566.201949,434.490588 571.828752,444.338189 571.828752,455.5 C571.828752,467.705357 565.100637,478.339279 555.150911,483.895262 C558.057285,487.092053 559.828752,491.339152 559.828752,496 C559.828752,505.941125 551.769878,514 541.828752,514 C540.335152,514 538.884041,513.818084 537.496366,513.475199 C540.494972,527.716077 538.035063,539.4105 523.607061,544.95764 C415.203801,586.635482 129.711189,541 93.007533,541 C85.5270699,541 78.5385508,538.145632 72.0582966,533.112423 C67.8619496,534.341014 63.4223081,535 58.8287523,535 C32.871369,535 11.8287523,513.957383 11.8287523,488 C11.8287523,479.244554 14.2228091,471.04827 18.3920112,464.03006 C10.0058943,455.541338 4.82875228,443.875262 4.82875228,431 C4.82875228,422.364219 7.15781515,414.272419 11.2220609,407.318481 C5.08282104,404.451843 0.828752284,398.222717 0.828752284,391 C0.828752284,382.534375 6.67290261,375.433724 14.5468439,373.512406 C14.0363382,367.312349 13.77881,361.674676 13.77881,356.78774 C13.77881,336.594643 18.6868406,323.588805 26.7928552,313.997857 C24.9854329,309.004361 24,303.61726 24,298 C24,274.702324 40.9513044,255.363838 63.1930273,251.645426 C63.0658636,250.782043 63,249.898713 63,249 C63,244.452618 64.6862662,240.299085 67.4676064,237.130592 C66.5232667,234.944073 66,232.533144 66,230 C66,220.058875 74.0588745,212 84,212 C84.137277,212 84.274195,212.001537 84.4107379,212.004594 C82.8775629,209.355996 82,206.280481 82,203 C82,194.17807 88.3464446,186.838432 96.7227987,185.29762 C95.0113931,182.975557 94,180.10589 94,177 C94,174.922845 94.4523613,172.951345 95.2639432,171.17864 C89.8626562,169.237282 86,164.069727 86,158 C86,150.268014 92.2680135,144 100,144 C102.316503,144 104.501599,144.562618 106.426099,145.558662 C107.959751,139.490624 113.455455,135 120,135 C127.731986,135 134,141.268014 134,149 C134,150.033725 133.887964,151.041282 133.675372,152.011192 C136.918729,154.575229 139,158.544561 139,163 C139,166.661968 137.594027,169.995554 135.292443,172.490396 C139.864154,174.794528 143,179.531056 143,185 C143,187.218861 142.483812,189.31716 141.564969,191.181363 C149.721976,192.345111 156.11622,198.97747 156.915672,207.24641 C164.17431,202.656628 172.776911,200 182,200 C191.496059,200 200.334358,202.816208 207.725265,207.658994 C211.007744,204.175006 215.664248,202 220.828752,202 C227.765382,202 233.785573,205.92374 236.790917,211.672813 C245.397105,202.053841 257.905953,196 271.828752,196 C282.898623,196 293.07464,199.82704 301.105908,206.230224 C304.184105,200.723305 310.071616,197 316.828752,197 C322.241814,197 327.096802,199.389402 330.396534,203.171027 C343.506106,196.046869 358.530454,192 374.5,192 C396.330772,192 416.3952,199.56262 432.216356,212.210931 C437.580233,208.304635 444.185355,206 451.328752,206 C469.278007,206 483.828752,220.550746 483.828752,238.5 C483.828752,239.341263 483.796789,240.17506 483.73401,241.000244 C483.765571,241.000081 483.797152,241 483.828752,241 C493.769878,241 501.828752,249.058875 501.828752,259 C501.828752,260.440855 501.659457,261.84217 501.339674,263.185136 C513.309264,271.376245 521.297159,284.959856 521.803215,300.435826 C540.418572,306.688432 553.828752,324.278158 553.828752,345 C553.828752,352.30498 552.162211,359.220719 549.188589,365.387756 Z" id="path-1"></path>
        <filter x="-9.2%" y="-13.0%" width="118.4%" height="124.6%" filterUnits="objectBoundingBox" id="filter-2">
            <feOffset dx="0" dy="-3" in="SourceAlpha" result="shadowOffsetOuter1"></feOffset>
            <feGaussianBlur stdDeviation="17" in="shadowOffsetOuter1" result="shadowBlurOuter1"></feGaussianBlur>
            <feColorMatrix values="0 0 0 0 0   0 0 0 0 0   0 0 0 0 0  0 0 0 0.13 0" type="matrix" in="shadowBlurOuter1"></feColorMatrix>
        </filter>
        <filter x="-46.9%" y="-19.5%" width="193.9%" height="139.0%" filterUnits="objectBoundingBox" id="filter-3">
            <feOffset dx="0" dy="2" in="SourceAlpha" result="shadowOffsetOuter1"></feOffset>
            <feGaussianBlur stdDeviation="5" in="shadowOffsetOuter1" result="shadowBlurOuter1"></feGaussianBlur>
            <feColorMatrix values="0 0 0 0 0   0 0 0 0 0   0 0 0 0 0  0 0 0 0.13 0" type="matrix" in="shadowBlurOuter1" result="shadowMatrixOuter1"></feColorMatrix>
            <feMerge>
                <feMergeNode in="shadowMatrixOuter1"></feMergeNode>
                <feMergeNode in="SourceGraphic"></feMergeNode>
            </feMerge>
        </filter>
    </defs>
    <g id="Page-1" stroke="none" stroke-width="1" fill="none" fill-rule="evenodd">
        <g id="00_01_superluminar_home_footer" transform="translate(-134.000000, -375.000000)" fill-rule="nonzero">
            <g id="footer" transform="translate(166.000000, 382.000000)">
                <g id="Group">
                    <g id="cloud">
                        <use fill="black" fill-opacity="1" filter="url(#filter-2)" xlink:href="#path-1"></use>
                        <use fill="#FFFFFF" xlink:href="#path-1"></use>
                    </g>
                    <g id="rocket" filter="url(#filter-3)" transform="translate(86.000000, 0.000000)">
                        <g id="Group-3-Copy" transform="translate(24.500000, 46.500000) rotate(-360.000000) translate(-24.500000, -46.500000) ">
                            <path d="M35.8141282,56.9423289 C30.094078,59.5295312 26.926906,68.3008909 26.937179,74.2771774 C26.947452,80.253464 28.2049761,90.1365374 28.9723905,91.0749472 C29.484,91.7005537 30.6990142,91.7256208 32.617433,91.1501485 C31.303477,86.282039 31.6517533,81.6705322 33.662262,77.3156283 C35.6727707,72.9607244 39.9017858,69.7525412 46.3493073,67.6910789 C43.1392214,58.800444 39.627495,55.2175274 35.8141282,56.9423289 Z" id="Path-51" fill="#FFFFFF" transform="translate(36.643231, 74.042848) scale(-1, 1) rotate(-8.000000) translate(-36.643231, -74.042848) "></path>
                            <path d="M11.4310205,57.0335238 C5.71097028,59.6207261 2.54379823,68.3920859 2.55407123,74.3683724 C2.56434423,80.3446589 3.82186835,90.2277324 4.58928272,91.1661421 C5.10089229,91.7917486 6.31590648,91.8168157 8.23432529,91.2413435 C6.92036926,86.3732339 7.26864559,81.7617272 9.27915428,77.4068233 C11.289663,73.0519193 15.5186781,69.8437362 21.9661996,67.7822739 C18.7561136,58.891639 15.2443873,55.3087223 11.4310205,57.0335238 Z" id="Path-51" fill="#FFFFFF" transform="translate(12.260123, 74.134043) rotate(-8.000000) translate(-12.260123, -74.134043) "></path>
                            <path d="M33,78.912549 C34.6728391,66.5794781 49.8686184,20.2298222 25.1452714,0.298742138 C-1.92529286,20.2298222 13.3736224,66.3627624 16.2364488,78.912549 C23.4735781,78.2641243 25.8480494,78.2641243 33,78.912549 Z" id="Oval" fill="#FFFFFF"></path>
                            <path d="M38,23.5726956 C37.1135753,15.2758074 31.52882,5.05326837 25.4964331,-4.12203605e-11 C18.3624416,5.45790182 12.6429509,12.1018037 10.6986248,23.9162253 C19.778572,27.0157435 29.673075,26.4343204 38,23.5726956 Z" id="Oval" fill="#03FFB7"></path>
                        </g>
                        <ellipse id="Oval" stroke="#03FFB7" stroke-width="1.4" fill="#03FFB7" cx="24.6512346" cy="39.9984277" rx="6.50308642" ry="6.42295597"></ellipse>
                        <path d="M25,117.469844 C29.418278,117.469844 33,93.418278 33,89 C33,84.581722 29.418278,83.3341912 25,83.3341912 C20.581722,83.3341912 17,84.581722 17,89 C17,93.418278 20.581722,117.469844 25,117.469844 Z" id="Oval" fill="#C92E4C"></path>
                        <path d="M25,106.135653 C27.7614237,106.135653 30,91.9483167 30,89.3420999 C30,86.735883 27.7614237,86 25,86 C22.2385763,86 20,86.735883 20,89.3420999 C20,91.9483167 22.2385763,106.135653 25,106.135653 Z" id="Oval" fill="#FF3B61"></path>
                    </g>
                </g>
            </g>
        </g>
    </g>
</svg>