<?xml version="1.0" encoding="UTF-8"?>
<svg width="34px" height="28px" viewBox="0 0 34 28" version="1.1" xmlns="http://www.w3.org/2000/svg" xmlns:xlink="http://www.w3.org/1999/xlink">
    <!-- Generator: Sketch 52.6 (67491) - http://www.bohemiancoding.com/sketch -->
    <title>hover_indicator</title>
    <desc>Created with Sketch.</desc>
    <g id="Page-1" stroke="none" stroke-width="1" fill="none" fill-rule="evenodd">
        <g id="04_01_superluminar_blog" transform="translate(-239.000000, -468.000000)" fill="#FF3B61" fill-rule="nonzero">
            <g id="tablle" transform="translate(232.000000, 360.000000)">
                <path d="M40.0559029,120.718627 L40.0323951,120.710864 L26.4571062,116.96715 L24.3444589,113.68172 L26.6891295,113.68172 C27.2397698,113.68172 27.6861523,113.246854 27.6861523,112.710421 C27.6861523,112.173987 27.2397698,111.739121 26.6891295,111.739121 L23.0954245,111.739121 L22.8274091,111.322369 L22.7930106,111.272362 C22.4302999,110.779143 22.0132025,110.334509 21.5535387,109.942599 L24.8544587,109.942599 C25.405099,109.942599 25.8514815,109.507733 25.8514815,108.971299 C25.8514815,108.434866 25.405099,108 24.8544587,108 L16.243034,108 C16.2341356,108.000194 16.2292879,108 16.2244403,108 C15.8324444,108.001423 15.4613665,108.16859 15.2063666,108.458673 C14.9513004,108.748691 14.8386754,109.131608 14.8973785,109.509221 L15.7953233,115.286945 L11.6148531,113.267685 C11.6079469,113.264386 11.6009078,113.261992 11.5939351,113.258822 C11.5750758,113.250218 11.5560172,113.242002 11.5365602,113.234563 C11.5240758,113.229775 11.511525,113.225441 11.4989079,113.221171 C11.4812438,113.215219 11.4634469,113.209526 11.445318,113.204545 C11.4299782,113.200275 11.4147048,113.196523 11.3992321,113.19303 C11.3837595,113.189536 11.3682868,113.186237 11.3524822,113.183391 C11.3340212,113.180091 11.3155603,113.177439 11.297033,113.175175 C11.2837517,113.173557 11.2704705,113.172005 11.25699,113.170905 C11.2361385,113.169158 11.2153533,113.168252 11.1945018,113.167864 C11.1868651,113.16767 11.1794276,113.166764 11.1717909,113.166764 C11.1669432,113.166764 11.1622284,113.167411 11.1573807,113.167476 C11.1371932,113.1678 11.1170721,113.168964 11.0969511,113.170452 C11.0830722,113.171487 11.0691933,113.172393 11.0553808,113.173945 C11.0386464,113.175886 11.0221113,113.178603 11.0055097,113.181385 C10.9889082,113.184102 10.9723066,113.186755 10.9559707,113.190248 C10.9428222,113.193094 10.929873,113.196717 10.9167246,113.200081 C10.8979981,113.204869 10.8793379,113.209721 10.8610098,113.215543 C10.8497871,113.219101 10.8388965,113.223435 10.8278067,113.227382 C10.8088145,113.234174 10.7897559,113.240967 10.771295,113.248924 C10.7597403,113.253841 10.7485841,113.259599 10.7371622,113.264904 C10.7201622,113.272926 10.7030958,113.280818 10.6866271,113.289746 C10.6730802,113.297121 10.6600646,113.305337 10.6467834,113.313294 C10.6333693,113.321381 10.6198224,113.329208 10.6067404,113.337942 C10.5914006,113.348163 10.5767912,113.35942 10.5619826,113.370482 C10.5518225,113.378181 10.5413967,113.385556 10.5315022,113.393578 C10.5162287,113.405999 10.5017522,113.41939 10.4871428,113.432846 C10.4783772,113.440933 10.4694124,113.448696 10.4609788,113.457042 C10.4476975,113.470174 10.4351468,113.484213 10.4225296,113.498251 C10.4134319,113.508343 10.4042015,113.518306 10.3955023,113.528721 C10.3852093,113.541142 10.3756468,113.55421 10.3659515,113.567278 C10.3558577,113.580799 10.345764,113.594255 10.3364007,113.608358 C10.329096,113.619356 10.3222562,113.630742 10.31535,113.642193 C10.3048578,113.659336 10.2946976,113.676739 10.2852679,113.694594 C10.2831429,113.69867 10.2805531,113.702357 10.2784281,113.706433 C10.2751078,113.712967 10.2727836,113.71963 10.2695961,113.726164 C10.2606312,113.744796 10.2520648,113.763686 10.2442953,113.7829 C10.2394477,113.794868 10.2350648,113.806901 10.2307484,113.819063 C10.2245727,113.836401 10.2187289,113.853933 10.2134828,113.871788 C10.2091664,113.886603 10.2053149,113.901417 10.2017289,113.916361 C10.1980766,113.931499 10.1946899,113.946638 10.1918344,113.962099 C10.1884477,113.980084 10.185725,113.998004 10.1834008,114.016053 C10.1817407,114.028992 10.1801469,114.041866 10.179018,114.054998 C10.177225,114.075312 10.1762954,114.095625 10.1758969,114.115939 C10.1756977,114.123379 10.174768,114.13056 10.174768,114.137999 L10.174768,118.55232 L7.40649228,121.022878 C7.14405493,121.257002 6.99590268,121.590106 7.00008627,121.93673 C7.00426986,122.28342 7.16032446,122.61303 7.42840633,122.841137 L10.174768,125.178557 L10.174768,129.86213 C10.174768,130.385561 10.6001662,130.811175 11.1323456,130.831489 C11.141576,130.832006 11.1508065,130.832589 11.160037,130.832847 C11.1639549,130.832912 11.1677401,130.83343 11.1717245,130.83343 C11.1779666,130.83343 11.1839432,130.832653 11.190119,130.832524 C11.3379392,130.832071 11.487818,130.800695 11.6291968,130.732379 L15.8096671,128.713119 L14.9117887,134.490908 C14.8530856,134.868456 14.9658433,135.251374 15.2207768,135.541327 C15.2771557,135.605438 15.3395111,135.663209 15.4062493,135.714834 C15.5867414,135.890992 15.8362295,136 16.1118817,136 L24.7233728,136 C25.2740131,136 25.7203956,135.565134 25.7203956,135.028701 C25.7203956,134.492267 25.2740131,134.057401 24.7233728,134.057401 L21.5679489,134.057401 C22.0277455,133.665556 22.4449757,133.220857 22.80762,132.727638 L22.8252176,132.703702 L23.1108972,132.260879 L26.8923325,132.260879 C27.4429728,132.260879 27.8893553,131.826013 27.8893553,131.289579 C27.8893553,130.753146 27.4429728,130.31828 26.8923325,130.31828 L24.3639824,130.31828 L26.4825397,127.034015 L40.0089537,123.29554 L40.0558365,123.281373 C40.6206213,123.095575 41,122.580619 41,122 C41,121.419381 40.6206213,120.904361 40.0559029,120.718627 Z" id="hover_indicator"></path>
            </g>
        </g>
    </g>
</svg>