<?xml version="1.0" encoding="UTF-8"?>
<svg width="317px" height="358px" viewBox="0 0 317 358" version="1.1" xmlns="http://www.w3.org/2000/svg" xmlns:xlink="http://www.w3.org/1999/xlink">
    <!-- Generator: Sketch 52.6 (67491) - http://www.bohemiancoding.com/sketch -->
    <g id="Page-1" stroke="none" stroke-width="1" fill="none" fill-rule="evenodd">
        <g id="iPhone_XS_03_02_superluminar_über_uns" transform="translate(-26.000000, -150.000000)" fill="#F9F9F9" fill-rule="nonzero">
            <g id="speechbubble" transform="translate(26.000000, 144.000000)">
                <path d="M272.849665,345.19147 C261.494543,368.295129 238.576331,363.609898 206,363.609898 C221.846153,358.063997 230.383396,350.153287 231.611727,339.877769 L29.6548649,313.854683 C12.6971997,311.669609 -4.39916985e-13,297.23134 -4.39916985e-13,280.133476 L-2.78817526e-13,40 C-2.32871755e-13,21.2223185 15.2223185,6 34,6 L282.58484,6 C301.362522,6 316.58484,21.2223185 316.58484,40 L316.58484,312.164795 C316.58484,313.617642 316.491718,315.068995 316.306047,316.50993 C313.906295,335.133638 296.863413,348.285753 278.239705,345.886002 L272.849665,345.19147 Z"></path>
            </g>
        </g>
    </g>
</svg>