<?xml version="1.0" encoding="UTF-8"?>
<svg width="331px" height="533px" viewBox="0 0 331 533" version="1.1" xmlns="http://www.w3.org/2000/svg" xmlns:xlink="http://www.w3.org/1999/xlink">
    <!-- Generator: Sketch 52.6 (67491) - http://www.bohemiancoding.com/sketch -->
    <title>illu_toolbox</title>
    <desc>Created with Sketch.</desc>
    <g id="Page-1" stroke="none" stroke-width="1" fill="none" fill-rule="evenodd">
        <g id="00_00_superluminar_home" transform="translate(-877.000000, -1946.000000)" fill-rule="nonzero">
            <g id="03_content" transform="translate(57.000000, 1835.000000)">
                <g id="illu_toolbox" transform="translate(983.000000, 377.000000) scale(-1, 1) translate(-983.000000, -377.000000) translate(815.000000, 109.000000)">
                    <g id="box" transform="translate(0.000000, 240.000000)">
                        <g id="Group-2" transform="translate(0.573631, 0.112757)" fill="#FFFFFF">
                            <polygon id="Path-26" points="51 206.329838 57.9583333 281.75267 137.116667 294.055972 241 160.747261 212.779191 83.695831 149.194928 74 139.575466 81.8872435 81.1180359 156.887243"></polygon>
                            <polygon id="Path-27" points="151.129526 73.7849423 106.609207 0 94.0539443 0 0 132.539872 37.4686442 204 53.2625 207"></polygon>
                        </g>
                        <path d="M139,102.883292 C143.600974,93.6758286 146.373122,89.0720967 147.316446,89.0720967 C148.731432,89.0720967 158.803777,88.5710233 159.319881,90.2108251 C159.663951,91.3040263 157.44293,96.6087673 152.656819,106.125048 L139,102.883292 Z" id="Path-38" fill="#03FFB7"></path>
                        <path d="M125.060594,142.833677 C129.247385,133.611226 131.580718,129 132.060594,129 C132.780409,129 139.798048,130.431087 140.060594,131.113343 C140.235625,131.56818 137.235625,136.143915 131.060594,144.840548 L125.060594,142.833677 Z" id="Path-38-Copy" fill="#03FFB7"></path>
                        <path d="M148.318901,149.630344 C154.916245,139.210115 158.454856,134 158.934732,134 C159.654547,134 166.720057,135.182302 166.982604,135.864558 C167.157635,136.319395 163.649515,141.667879 156.458245,151.910009 L148.318901,149.630344 Z" id="Path-38-Copy-2" fill="#03FFB7"></path>
                        <path d="M127,223 L137.928091,293.318077" id="Path-29" stroke="#393F4D" stroke-width="2" stroke-linecap="round" stroke-linejoin="round"></path>
                        <path d="M102.524392,170.390099 C111.635549,168.770772 146.139344,179.112067 146.139344,182.699516 C146.139344,186.286964 126.100126,212.464262 119.929167,214.223696 C113.758208,215.98313 76.8916667,214.058335 68.9458333,210.058335 C61,206.058335 93.4132358,172.009425 102.524392,170.390099 Z" id="Path-36" fill="#03FFB7"></path>
                        <path d="M94.9448484,-1.32160949e-12 L107.136414,-1.32160949e-12 C96.5832183,19.8647145 88.7271753,33.1980478 83.5682854,40 C40,97.4444108 18.9834742,125.179862 18.9834742,132.738134 C18.9834742,136.56022 30.9417606,160.942086 54.8583333,205.883733 L38.1505759,204 C12.8946364,160.938418 0.266666667,137.184462 0.266666667,132.738134 C0.266666667,128.291806 31.8260606,84.0457609 94.9448484,-1.32160949e-12 Z" id="Path-37" fill="#03FFB7"></path>
                        <path d="M68.9458333,61 C33.2791952,103.10258 16.5847999,127.601653 18.8626474,134.497218 C21.1404949,141.392783 33.1390569,165.243732 54.8583333,206.050065 L151.833187,74.6834001" id="Path-29-Copy" stroke="#393F4D" stroke-width="2" stroke-linecap="round" stroke-linejoin="round"></path>
                        <path d="M146.139344,84 C188.025045,88.463773 206.978597,93.497284 203,99.1005331 C193.521807,112.449128 132,208 123,213 C117,216.333333 94.7070857,214.666667 56.1212572,208" id="Path-30" stroke="#393F4D" stroke-width="2" stroke-linecap="round" stroke-linejoin="round"></path>
                        <polygon id="Path-31" stroke="#393F4D" stroke-width="2" stroke-linecap="round" stroke-linejoin="round" points="100 145.415511 159.508333 164.106783 165 155.630604 104.920833 137.887629"></polygon>
                        <path d="M100,147 C101.406966,154.354969 102.11045,162.187893 102.11045,170.498772 C115.735339,167 144.38461,178.579358 147.336066,182.207123" id="Path-32" stroke="#393F4D" stroke-width="2" stroke-linecap="round" stroke-linejoin="round"></path>
                        <path d="M102.449285,170.40171 C95.5702206,171.954705 89.4240563,177.861354 85.3300947,182.133886 C78.540986,189.219121 69.1984423,203.99181 67.3765822,209.386871" id="Path-33" stroke="#393F4D" stroke-width="2"></path>
                        <path d="M119.622472,118.315551 L179.341299,133.263735 L190.231491,116.661949 C160.079941,107.798894 140.670833,103.367367 132.004167,103.367367" id="Path-34" stroke="#393F4D" stroke-width="2" stroke-linecap="round" stroke-linejoin="round"></path>
                        <path d="M176.319672,95 L168,110.143949 L180.266393,113.834784 C183.657104,105.560317 187.155369,99.2820553 190.76119,95" id="Path-35" stroke="#393F4D" stroke-width="2" stroke-linecap="round" stroke-linejoin="round"></path>
                        <path d="M146.200366,89.3638881 L138.281828,104.680661 L150.419503,105.883741 C153.372771,101.701844 156.363647,97.2004665 159.392131,92.3796101 C159.843694,91.6607959 155.446439,90.6555552 146.200366,89.3638881 Z" id="Path-35-Copy" stroke="#393F4D" stroke-width="2" stroke-linecap="round" stroke-linejoin="round" transform="translate(148.852750, 97.623815) rotate(178.000000) translate(-148.852750, -97.623815) "></path>
                        <path d="M160.570269,134.350071 L148.637802,151.001912 L158.449309,152.981315 C164.472582,144.571326 167.995738,139.560925 169.018779,137.95011 C169.171319,137.70993 166.355149,136.509916 160.570269,134.350071 Z" id="Path-35-Copy-2" stroke="#393F4D" stroke-width="2" stroke-linecap="round" stroke-linejoin="round" transform="translate(158.831230, 143.665693) rotate(178.000000) translate(-158.831230, -143.665693) "></path>
                        <path d="M132.956922,129.279234 L124.327155,142.476422 L132.413556,144.839204 C136.844457,137.915739 139.571428,133.648598 140.594469,132.037784 C140.74701,131.797603 138.20116,130.878087 132.956922,129.279234 Z" id="Path-35-Copy-3" stroke="#393F4D" stroke-width="2" stroke-linecap="round" stroke-linejoin="round" transform="translate(132.464046, 137.059219) rotate(178.000000) translate(-132.464046, -137.059219) "></path>
                        <path d="M123.668033,127 L115,139.657298" id="Path-39" stroke="#393F4D" stroke-width="2" stroke-linecap="round" stroke-linejoin="round"></path>
                        <path d="M137.668033,107 L129,119.657298" id="Path-39-Copy-2" stroke="#393F4D" stroke-width="2" stroke-linecap="round" stroke-linejoin="round"></path>
                        <path d="M109.668033,36 L101,48.6572975" id="Path-39-Copy-15" stroke="#393F4D" stroke-width="2" stroke-linecap="round" stroke-linejoin="round"></path>
                        <path d="M115.668033,46 L107,58.6572975" id="Path-39-Copy-17" stroke="#393F4D" stroke-width="2" stroke-linecap="round" stroke-linejoin="round"></path>
                        <path d="M132.668033,72 L124,84.6572975" id="Path-39-Copy-22" stroke="#393F4D" stroke-width="2" stroke-linecap="round" stroke-linejoin="round"></path>
                        <path d="M178.668033,118 L170,130.657298" id="Path-39-Copy-5" stroke="#393F4D" stroke-width="2" stroke-linecap="round" stroke-linejoin="round"></path>
                        <path d="M147,137.328649 L141,147.657298" id="Path-39-Copy" stroke="#393F4D" stroke-width="2" stroke-linecap="round" stroke-linejoin="round"></path>
                        <path d="M161,116.328649 L155,126.657298" id="Path-39-Copy-3" stroke="#393F4D" stroke-width="2" stroke-linecap="round" stroke-linejoin="round"></path>
                        <path d="M139,111.328649 L133,121.657298" id="Path-39-Copy-6" stroke="#393F4D" stroke-width="2" stroke-linecap="round" stroke-linejoin="round"></path>
                        <path d="M113,41 L101,59" id="Path-39-Copy-16" stroke="#393F4D" stroke-width="2" stroke-linecap="round" stroke-linejoin="round"></path>
                        <path d="M130,67 L118,85" id="Path-39-Copy-23" stroke="#393F4D" stroke-width="2" stroke-linecap="round" stroke-linejoin="round"></path>
                        <path d="M119,51 L111,62.6572975" id="Path-39-Copy-18" stroke="#393F4D" stroke-width="2" stroke-linecap="round" stroke-linejoin="round"></path>
                        <path d="M121,55 L113,66.6572975" id="Path-39-Copy-19" stroke="#393F4D" stroke-width="2" stroke-linecap="round" stroke-linejoin="round"></path>
                        <path d="M124,59 L116,70.6572975" id="Path-39-Copy-20" stroke="#393F4D" stroke-width="2" stroke-linecap="round" stroke-linejoin="round"></path>
                        <path d="M155,114.328649 L149,124.657298" id="Path-39-Copy-4" stroke="#393F4D" stroke-width="2" stroke-linecap="round" stroke-linejoin="round"></path>
                        <path d="M56.1212572,180 L39,143.657298" id="Path-39-Copy-7" stroke="#393F4D" stroke-width="2" stroke-linecap="round" stroke-linejoin="round"></path>
                        <path d="M59.1212572,175 L39,132" id="Path-39-Copy-8" stroke="#393F4D" stroke-width="2" stroke-linecap="round" stroke-linejoin="round"></path>
                        <path d="M63.1212572,170 L46,133.657298" id="Path-39-Copy-9" stroke="#393F4D" stroke-width="2" stroke-linecap="round" stroke-linejoin="round"></path>
                        <path d="M68.1212572,163 L55,134" id="Path-39-Copy-10" stroke="#393F4D" stroke-width="2" stroke-linecap="round" stroke-linejoin="round"></path>
                        <path d="M72.1212572,158 L55,121.657298" id="Path-39-Copy-11" stroke="#393F4D" stroke-width="2" stroke-linecap="round" stroke-linejoin="round"></path>
                        <path d="M80.1212572,147 L59,104.417392" id="Path-39-Copy-12" stroke="#393F4D" stroke-width="2" stroke-linecap="round" stroke-linejoin="round"></path>
                        <path d="M82.1212572,142 L67.3765822,110" id="Path-39-Copy-13" stroke="#393F4D" stroke-width="2" stroke-linecap="round" stroke-linejoin="round"></path>
                        <path d="M88.1212572,132 L78,107" id="Path-39-Copy-14" stroke="#393F4D" stroke-width="2" stroke-linecap="round" stroke-linejoin="round"></path>
                        <path d="M91.1916667,64.0105155 C106.397222,86.008119 114,98.7689688 114,102.293065 C114,105.817161 94.7333333,134.702429 56.2,188.948869" id="Path-40" stroke="#393F4D" stroke-width="2" stroke-linecap="round" stroke-linejoin="round"></path>
                    </g>
                    <g id="mobile" transform="translate(310.438387, 363.063986) rotate(-22.000000) translate(-310.438387, -363.063986) translate(298.438387, 329.563986)">
                        <path d="M11.9396904,6.43251314 L15.7255195,6.43251314 L18.1760871,1.98577148 C18.9757735,0.534679588 20.8003898,0.00661108473 22.2514817,0.80629747 C23.2796238,1.37289923 23.8828168,2.48713078 23.7951432,3.65778318 L22.1475894,25.6565645 C22.0303405,27.222118 20.7259055,28.4325131 19.1559676,28.4325131 L3.93969039,28.4325131 C2.28283614,28.4325131 0.939690392,27.0893674 0.939690392,25.4325131 L0.939690392,17.4325131 C0.939690392,11.3573809 5.86455814,6.43251314 11.9396904,6.43251314 Z" id="Rectangle" fill="#FFFFFF"></path>
                        <path d="M1.911938,27.8302548 C14.4400549,26.1271677 20.7733882,26.1271677 20.911938,27.8302548 C19.1522695,29.6769921 19.0987064,31.5254312 19.0987064,33.1566827 C19.0987064,43.2887683 19.0987064,53.4208539 19.0987064,63.5529395 L19.0987064,63.5529395 C19.0987064,65.2097937 17.7555606,66.5529395 16.0987064,66.5529395 L6.73135016,66.5529395 C5.07449591,66.5529395 3.73135016,65.2097937 3.73135016,63.5529395 C3.73135016,53.4196648 3.73135016,43.2863901 3.73135016,33.1531155 C3.73135016,30.5556281 3.12487944,28.7813412 1.911938,27.8302548 Z" id="Rectangle-Copy-2" fill="#FFFFFF"></path>
                        <path d="M11.2631334,11.6887813 L16.7631334,11.6887813 C18.4199877,11.6887813 19.7631334,13.0319271 19.7631334,14.6887813 L19.7631334,21.6887813 C19.7631334,23.3456356 18.4199877,24.6887813 16.7631334,24.6887813 L7.76313341,24.6887813 C6.10627916,24.6887813 4.76313341,23.3456356 4.76313341,21.6887813 L4.76313341,18.1887813 C4.76313341,14.5989305 7.67328254,11.6887813 11.2631334,11.6887813 Z" id="Rectangle" fill="#03FFB7"></path>
                        <rect id="Rectangle-Copy-4" fill="#FF3B61" x="6.87319969" y="29.8285768" width="11" height="34" rx="3"></rect>
                        <path d="M6.35719424,40.6155162 L6.35719424,61.1107647 C6.51577743,62.780599 7.0452322,63.6155162 7.94555855,63.6155162 C8.84588489,63.6155162 11.3164301,63.6155162 15.3571942,63.6155162" id="Path-41" stroke="#393F4D" stroke-linecap="round" stroke-linejoin="round"></path>
                        <path d="M8.318847,30.0020462 L8.31593938,50.3307175 C8.47428529,51.9869575 9.0036203,52.8150137 9.90394442,52.814886 C10.8042685,52.8147583 13.2748076,52.8144078 17.3155618,52.8138345" id="Path-41" stroke="#393F4D" stroke-linecap="round" stroke-linejoin="round" transform="translate(12.815751, 41.408466) rotate(-179.000000) translate(-12.815751, -41.408466) "></path>
                        <path d="M10.1329369,42.4110059 C11.8299996,42.3497721 13.1365727,42.3191551 14.0526563,42.3191551 C14.9687398,42.3191551 15.6621667,42.3497721 16.1329369,42.4110059" id="Path-42" stroke="#393F4D" stroke-linecap="round" stroke-linejoin="round"></path>
                        <path d="M4.46903437,40.2222679 C10.4178196,40.3623042 14.8426779,40.4323223 17.7436092,40.4323223 C20.6445405,40.4323223 23.0650195,40.4800342 25.005046,40.575458" id="Path-42-Copy-4" stroke="#393F4D" stroke-linecap="round" stroke-linejoin="round" transform="translate(14.737040, 40.398863) scale(1, -1) rotate(90.000000) translate(-14.737040, -40.398863) "></path>
                        <path d="M1.55408109,54.6118077 L20.7321514,53.2862011" id="Path-42-Copy-5" stroke="#393F4D" stroke-linecap="round" stroke-linejoin="round" transform="translate(11.143116, 53.949004) scale(-1, -1) rotate(90.000000) translate(-11.143116, -53.949004) "></path>
                        <path d="M6.51235816,33.4805442 C8.82994133,33.4193104 10.7211457,33.3886935 12.1859713,33.3886935 C13.6507969,33.3886935 14.7595925,33.4193104 15.5123582,33.4805442" id="Path-42-Copy-2" stroke="#393F4D" stroke-linecap="round" stroke-linejoin="round"></path>
                        <path d="M6.21590651,56.2821257 C8.53348968,56.2208918 10.4246941,56.1902749 11.8895196,56.1902749 C13.3543452,56.1902749 14.4631409,56.2208918 15.2159065,56.2821257" id="Path-42-Copy-6" stroke="#393F4D" stroke-linecap="round" stroke-linejoin="round"></path>
                        <path d="M6.33233213,37.742198 C7.31522788,37.8605211 8.60048046,37.9196827 10.1880899,37.9196827 C11.7756992,37.9196827 14.1571133,37.8605211 17.3323321,37.742198" id="Path-42-Copy" stroke="#393F4D" stroke-linecap="round" stroke-linejoin="round"></path>
                        <path d="M6.31151783,59.5825178 C7.29441359,59.7008409 8.57966616,59.7600024 10.1672756,59.7600024 C11.7548849,59.7600024 14.136299,59.7008409 17.3115178,59.5825178" id="Path-42-Copy-7" stroke="#393F4D" stroke-linecap="round" stroke-linejoin="round"></path>
                    </g>
                    <g id="detector" transform="translate(287.448045, 249.323437) rotate(9.000000) translate(-287.448045, -249.323437) translate(266.448045, 211.823437)">
                        <rect id="Rectangle" fill="#FFFFFF" x="0.668498494" y="0.0816692525" width="41" height="37" rx="3"></rect>
                        <path d="M3.2834803,35.704093 C27.6803395,34.0010059 40.0136728,34.0010059 40.2834803,35.704093 C36.8567575,37.5508303 36.7524503,39.3992694 36.7524503,41.0305209 C36.7524503,51.1626065 36.7524503,61.2946921 36.7524503,71.4267777 L36.7524503,71.4267777 C36.7524503,73.0836319 35.4093046,74.4267777 33.7524503,74.4267777 L9.8265461,74.4267777 C8.16969185,74.4267777 6.8265461,73.0836319 6.8265461,71.4267777 C6.8265461,61.293503 6.8265461,51.1602283 6.8265461,41.0269537 C6.8265461,38.4294663 5.64552416,36.6551794 3.2834803,35.704093 Z" id="Rectangle-Copy-2" fill="#FFFFFF"></path>
                        <rect id="Rectangle" fill="#FF3B61" x="6.81877713" y="5.99114036" width="30" height="27" rx="3"></rect>
                        <rect id="Rectangle-Copy-4" fill="#03FFB7" x="10.3678534" y="39.4988391" width="22" height="31" rx="3"></rect>
                        <path d="M10.6271284,42.7932405 L10.6271284,67.7439778 C10.9442948,69.7768196 12.0032043,70.7932405 13.803857,70.7932405 C15.6045097,70.7932405 20.5456001,70.7932405 28.6271284,70.7932405" id="Path-41" stroke="#393F4D" stroke-linecap="round" stroke-linejoin="round"></path>
                        <path d="M18.7572961,63.6993078 C21.8685776,63.638074 24.2639616,63.6074571 25.9434481,63.6074571 C27.6229347,63.6074571 28.8942173,63.638074 29.7572961,63.6993078" id="Path-42" stroke="#393F4D" stroke-linecap="round" stroke-linejoin="round"></path>
                        <path d="M6.09807524,53.6337477 C12.603482,53.5500615 17.6120123,53.5082183 21.123666,53.5082183 C24.6353197,53.5082183 27.2934561,53.5500615 29.0980752,53.6337477" id="Path-42-Copy-3" stroke="#393F4D" stroke-linecap="round" stroke-linejoin="round" transform="translate(17.598075, 53.570983) rotate(-90.000000) translate(-17.598075, -53.570983) "></path>
                        <path d="M13.1192465,59.6089593 C19.6246533,59.525273 24.6331836,59.4834299 28.1448373,59.4834299 C31.656491,59.4834299 34.3146274,59.525273 36.1192465,59.6089593" id="Path-42-Copy-4" stroke="#393F4D" stroke-linecap="round" stroke-linejoin="round" transform="translate(24.619247, 59.546195) rotate(-90.000000) translate(-24.619247, -59.546195) "></path>
                        <path d="M10.5979927,50.2627572 C15.233159,50.2015234 19.0155678,50.1709065 21.945219,50.1709065 C24.8748701,50.1709065 27.0924614,50.2015234 28.5979927,50.2627572" id="Path-42-Copy-2" stroke="#393F4D" stroke-linecap="round" stroke-linejoin="round"></path>
                        <path d="M11.5489111,56.210654 C12.9785777,56.3289771 14.848036,56.3881387 17.157286,56.3881387 C19.466536,56.3881387 22.9304111,56.3289771 27.5489111,56.210654" id="Path-42-Copy" stroke="#393F4D" stroke-linecap="round" stroke-linejoin="round"></path>
                    </g>
                    <g id="lazer_sword" transform="translate(206.818095, 211.873788) rotate(-20.000000) translate(-206.818095, -211.873788) translate(199.318095, 142.373788)">
                        <rect id="Rectangle" fill="#FF3B61" x="4" y="0" width="7" height="113" rx="3.5"></rect>
                        <rect id="Rectangle" fill="#FFFFFF" x="1.8189894e-12" y="109" width="15" height="5" rx="1"></rect>
                        <rect id="Rectangle-Copy-3" fill="#FFFFFF" x="1" y="134" width="13" height="5" rx="1"></rect>
                        <rect id="Rectangle-Copy" fill="#FFFFFF" transform="translate(7.500000, 122.500000) rotate(-270.000000) translate(-7.500000, -122.500000) " x="-8" y="118" width="31" height="9"></rect>
                        <path d="M12,133 L3,133" id="Path-39-Copy-6" stroke="#393F4D" stroke-width="2"></path>
                        <path d="M12,115 L3,115" id="Path-39-Copy-21" stroke="#393F4D" stroke-width="2"></path>
                    </g>
                    <g id="scanner" transform="translate(135.635023, 119.613220) rotate(7.000000) translate(-135.635023, -119.613220) translate(124.635023, 89.113220)">
                        <rect id="Rectangle" fill="#FFFFFF" x="0.939690392" y="0.432513142" width="21" height="22" rx="3"></rect>
                        <path d="M1.911938,21.8302548 C14.4400549,20.1271677 20.7733882,20.1271677 20.911938,21.8302548 C19.1522695,23.6769921 19.0987064,25.5254312 19.0987064,27.1566827 C19.0987064,37.2887683 19.0987064,47.4208539 19.0987064,57.5529395 L19.0987064,57.5529395 C19.0987064,59.2097937 17.7555606,60.5529395 16.0987064,60.5529395 L6.73135016,60.5529395 C5.07449591,60.5529395 3.73135016,59.2097937 3.73135016,57.5529395 C3.73135016,47.4196648 3.73135016,37.2863901 3.73135016,27.1531155 C3.73135016,24.5556281 3.12487944,22.7813412 1.911938,21.8302548 Z" id="Rectangle-Copy-2" fill="#FFFFFF"></path>
                        <rect id="Rectangle" fill="#03FFB7" x="4" y="4.85710598" width="15" height="13" rx="3"></rect>
                        <rect id="Rectangle-Copy-4" fill="#03FFB7" x="6" y="24" width="11" height="34" rx="3"></rect>
                        <path d="M6.35719424,34.6155162 L6.35719424,55.1107647 C6.51577743,56.780599 7.0452322,57.6155162 7.94555855,57.6155162 C8.84588489,57.6155162 11.3164301,57.6155162 15.3571942,57.6155162" id="Path-41" stroke="#393F4D" stroke-linecap="round" stroke-linejoin="round"></path>
                        <path d="M8.318847,24.0020462 L8.31593938,44.3307175 C8.47428529,45.9869575 9.0036203,46.8150137 9.90394442,46.814886 C10.8042685,46.8147583 13.2748076,46.8144078 17.3155618,46.8138345" id="Path-41" stroke="#393F4D" stroke-linecap="round" stroke-linejoin="round" transform="translate(12.815751, 35.408466) rotate(-179.000000) translate(-12.815751, -35.408466) "></path>
                        <path d="M10.2548063,37.4035521 C11.9518689,37.3423182 13.258442,37.3117013 14.1745256,37.3117013 C15.0906092,37.3117013 15.7840361,37.3423182 16.2548063,37.4035521" id="Path-42" stroke="#393F4D" stroke-linecap="round" stroke-linejoin="round"></path>
                        <path d="M4.46903437,34.2222679 C10.4178196,34.3623042 14.8426779,34.4323223 17.7436092,34.4323223 C20.6445405,34.4323223 23.0650195,34.4800342 25.005046,34.575458" id="Path-42-Copy-4" stroke="#393F4D" stroke-linecap="round" stroke-linejoin="round" transform="translate(14.737040, 34.398863) scale(1, -1) rotate(90.000000) translate(-14.737040, -34.398863) "></path>
                        <path d="M1.55408109,48.6118077 L20.7321514,47.2862011" id="Path-42-Copy-5" stroke="#393F4D" stroke-linecap="round" stroke-linejoin="round" transform="translate(11.143116, 47.949004) scale(-1, -1) rotate(90.000000) translate(-11.143116, -47.949004) "></path>
                        <path d="M6.51235816,27.4805442 C8.82994133,27.4193104 10.7211457,27.3886935 12.1859713,27.3886935 C13.6507969,27.3886935 14.7595925,27.4193104 15.5123582,27.4805442" id="Path-42-Copy-2" stroke="#393F4D" stroke-linecap="round" stroke-linejoin="round"></path>
                        <path d="M6.21590651,50.2821257 C8.53348968,50.2208918 10.4246941,50.1902749 11.8895196,50.1902749 C13.3543452,50.1902749 14.4631409,50.2208918 15.2159065,50.2821257" id="Path-42-Copy-6" stroke="#393F4D" stroke-linecap="round" stroke-linejoin="round"></path>
                        <path d="M6.33233213,31.742198 C7.31522788,31.8605211 8.60048046,31.9196827 10.1880899,31.9196827 C11.7756992,31.9196827 14.1571133,31.8605211 17.3323321,31.742198" id="Path-42-Copy" stroke="#393F4D" stroke-linecap="round" stroke-linejoin="round"></path>
                        <path d="M6.31151783,53.5825178 C7.29441359,53.7008409 8.57966616,53.7600024 10.1672756,53.7600024 C11.7548849,53.7600024 14.136299,53.7008409 17.3115178,53.5825178" id="Path-42-Copy-7" stroke="#393F4D" stroke-linecap="round" stroke-linejoin="round"></path>
                    </g>
                    <g id="lazer_sword" transform="translate(292.189750, 101.086263) rotate(32.000000) translate(-292.189750, -101.086263) translate(284.689750, 31.586263)">
                        <rect id="Rectangle" fill="#FF3B61" x="4" y="0" width="7" height="113" rx="3.5"></rect>
                        <rect id="Rectangle" fill="#FFFFFF" x="1.8189894e-12" y="109" width="15" height="5" rx="1"></rect>
                        <rect id="Rectangle-Copy-3" fill="#FFFFFF" x="1" y="134" width="13" height="5" rx="1"></rect>
                        <rect id="Rectangle-Copy" fill="#FFFFFF" transform="translate(7.500000, 122.500000) rotate(-270.000000) translate(-7.500000, -122.500000) " x="-8" y="118" width="31" height="9"></rect>
                        <path d="M12,133 L3,133" id="Path-39-Copy-6" stroke="#393F4D" stroke-width="2"></path>
                        <path d="M12,115 L3,115" id="Path-39-Copy-21" stroke="#393F4D" stroke-width="2"></path>
                    </g>
                    <g id="shocker" transform="translate(242.058107, 49.586544) rotate(16.000000) translate(-242.058107, -49.586544) translate(223.058107, 3.586544)">
                        <path d="M8.35053428,1.13442665 L3.13850032,25.1365074 C3.05047651,25.5418683 3.14153285,25.9654988 3.38834586,26.2988889 L9.63268566,34.7336187 C9.81624811,34.9815712 9.91532657,35.2819213 9.91532657,35.5904268 L9.91532657,40.801245 C9.91532657,41.5965351 10.5600366,42.2412451 11.3553267,42.2412451 L14.7742856,42.2412451 C15.5695757,42.2412451 16.2142857,42.8859551 16.2142857,43.6812453 L16.2142857,90.3839353 C16.2142857,91.1792254 16.8589957,91.8239354 17.6542858,91.8239354 L23.702857,91.8239354 C24.4981471,91.8239354 25.1428571,91.1792254 25.1428571,90.3839353 L25.1428571,43.6812453 C25.1428571,42.8859551 25.7875672,42.2412451 26.5828573,42.2412451 L30.0188204,42.2412451 C30.8122321,42.2412451 31.4561614,41.5994638 31.4588124,40.8060565 L31.4763675,35.552086 C31.4773188,35.2673669 31.5626529,34.9893198 31.7215847,34.7530856 L37.4074422,26.3017056 C37.633463,25.9657514 37.7075985,25.5501625 37.6116817,25.156779 L31.6498504,0.705521371 C31.5488796,0.291409975 31.1778794,1.09153724e-11 30.7516361,1.09139364e-11 L30.7516361,1.09139364e-11 C30.3413431,1.09140118e-11 29.9997124,0.314847572 29.9662897,0.723777026 L28.2305506,21.9606668 C28.1888164,22.471288 27.7410438,22.851396 27.2304226,22.8096618 C27.125372,22.8010758 27.0225529,22.7746494 26.9263812,22.7315175 L26.0102486,22.3206431 C25.8249156,22.2375235 25.6240947,22.1945525 25.4209761,22.1945525 L16.0304714,22.1945525 C15.8498792,22.1945525 15.6708985,22.2285224 15.5028646,22.2946902 L14.3935375,22.7315175 C13.8422398,22.9486058 13.2193398,22.6776755 13.0022515,22.1263777 C12.9619481,22.0240269 12.9376255,21.9160863 12.9301368,21.8063412 L11.5336957,1.34196585 C11.4821432,0.586482239 10.854277,1.09135688e-11 10.0970365,1.09143805e-11 L9.75773902,1.09148246e-11 C9.08020185,1.09149491e-11 8.49431023,0.472320093 8.35053428,1.13442665 Z" id="Path-43" fill="#FFFFFF"></path>
                        <path d="M12.5774073,27.3798239 L15.5234229,25.1996144 C15.6473814,25.1078785 15.7975185,25.0583658 15.95173,25.0583658 L24.7247269,25.0583658 C24.8482711,25.0583658 24.969737,25.0901556 25.0774415,25.1506776 L29.061286,27.389305 C29.2881508,27.5167864 29.4285714,27.7567641 29.4285714,28.0169932 L29.4285714,39.4048752 C29.4285714,39.8025203 29.1062164,40.1248753 28.7085714,40.1248753 L13.0057143,40.1248753 C12.6080693,40.1248753 12.2857143,39.8025203 12.2857143,39.4048752 L12.2857143,27.9585753 C12.2857143,27.7303288 12.3939379,27.5156011 12.5774073,27.3798239 Z" id="Rectangle" fill="#FF3B61"></path>
                        <polygon id="Rectangle" fill="#03FFB7" points="16.2142857 44.2556996 19.9043802 44.2556996 19.9043802 88.0622568 16.2142857 88.0622568"></polygon>
                        <polygon id="Rectangle-Copy-5" fill="#03FFB7" points="21.5714286 44.2556996 25.2615231 44.2556996 25.2615231 88.0622568 21.5714286 88.0622568"></polygon>
                        <path d="M8.44218219,7.36893944 C6.02314203,18.5220242 4.93431833,24.2778706 5.17571108,24.6364785 C5.54389073,25.1834384 11.1376008,23.6151266 11.1376008,22.8272566 C11.1376008,22.3141233 10.9698865,17.2039394 10.6344581,7.49670509 L10.6344711,7.49670464 C10.6210728,7.1089617 10.3028619,6.80155642 9.91488751,6.80155642 L9.14582937,6.80154862 C8.80699139,6.80154862 8.51400425,7.03780084 8.44218219,7.36893944 Z" id="Path-44" fill="#03FFB7"></path>
                        <path d="M33.0850393,7.36893944 C30.6659992,18.5220242 29.5771755,24.2778706 29.8185682,24.6364785 C30.1867479,25.1834384 35.7804579,23.6151266 35.7804579,22.8272566 C35.7804579,22.3141233 35.6127437,17.2039394 35.2773153,7.49670509 L35.2773282,7.49670464 C35.26393,7.1089617 34.945719,6.80155642 34.5577447,6.80155642 L33.7886865,6.80154862 C33.4498485,6.80154862 33.1568614,7.03780084 33.0850393,7.36893944 Z" id="Path-44-Copy" fill="#03FFB7" transform="translate(32.783086, 15.775692) scale(-1, 1) translate(-32.783086, -15.775692) "></path>
                        <path d="M22.623663,26.7322902 L18.2182788,25.3013811 C15.3682788,25.9116974 13.9432788,26.3886671 13.9432788,26.7322902 C13.9432788,27.2477249 10.7076042,38.0927199 10.7076042,38.5885338 C10.7076042,38.7782342 11.6465602,39.147926 13.5244722,39.6976091" id="Path-45" stroke="#393F4D" stroke-linecap="round" stroke-linejoin="round" transform="translate(16.665634, 32.499495) rotate(-16.000000) translate(-16.665634, -32.499495) "></path>
                        <path d="M11.5591037,7.17579253 C10.8828203,6.88947186 10.5446787,6.88947186 10.5446787,7.17579253 C10.5446787,7.46211319 8.23440998,11.9159354 3.61387263,20.5372591 C2.55825207,22.6813407 2.65116497,23.7533814 3.89261134,23.7533814 C5.75478089,23.7533814 8.3455918,23.9194982 8.51772373,23.3947439 C8.63247836,23.0449078 9.09638332,21.4106683 9.90943864,18.4920255" id="Path-46" stroke="#393F4D" stroke-linecap="round" stroke-linejoin="round" transform="translate(7.222654, 15.369700) rotate(-16.000000) translate(-7.222654, -15.369700) "></path>
                        <path d="M31.9277008,11.0696196 C29.6610342,18.0270212 28.5277008,21.6240341 28.5277008,21.8606583 C28.5277008,22.2155946 32.7895975,25.1600712 33.4757854,25.1600712 C33.9332439,25.1600712 34.0880491,24.1693962 33.9402008,22.1880463" id="Path-47" stroke="#393F4D" stroke-linecap="round" stroke-linejoin="round" transform="translate(31.261035, 18.114845) rotate(-16.000000) translate(-31.261035, -18.114845) "></path>
                        <path d="M21.4342959,44.1994338 C23.96557,44.4827217 25.231207,44.8576175 25.231207,45.3241211 C25.231207,45.7906248 21.301712,59.0588714 13.4427219,85.128861" id="Path-48" stroke="#393F4D" stroke-linecap="round" stroke-linejoin="round" transform="translate(19.336964, 64.664147) rotate(-16.000000) translate(-19.336964, -64.664147) "></path>
                        <polyline id="Path-49" stroke="#393F4D" stroke-linecap="round" stroke-linejoin="round" transform="translate(21.913124, 83.860077) rotate(-16.000000) translate(-21.913124, -83.860077) " points="22.9727808 78.4857672 20.248748 88.1169369 23.5775003 89.2343861"></polyline>
                    </g>
                </g>
            </g>
        </g>
    </g>
</svg>