<?xml version="1.0" encoding="UTF-8"?>
<svg width="391px" height="642px" viewBox="0 0 391 642" version="1.1" xmlns="http://www.w3.org/2000/svg" xmlns:xlink="http://www.w3.org/1999/xlink">
    <!-- Generator: Sketch 52.6 (67491) - http://www.bohemiancoding.com/sketch -->
    <title>illlu_ufo_placeholder</title>
    <desc>Created with Sketch.</desc>
    <g id="Page-1" stroke="none" stroke-width="1" fill="none" fill-rule="evenodd">
        <g id="05_superluminar_jobs" transform="translate(-130.000000, -187.000000)">
            <g id="01_content" transform="translate(37.000000, 83.000000)">
                <g id="illlu_ufo_placeholder" transform="translate(290.004249, 436.238201) scale(-1, 1) rotate(13.000000) translate(-290.004249, -436.238201) translate(145.004249, 90.738201)">
                    <path d="M44.3257458,568.685583 C89.169825,546.503571 161.816577,546.503571 206.660657,568.685583 C251.504736,590.867595 251.504736,626.988475 206.660657,649.170487 C161.816577,671.352499 89.169825,671.352499 44.3257458,649.170487 C-0.518333408,626.988475 -0.517877962,591.017532 44.3257458,568.685583 Z" id="Path-Copy" fill="#B8E986" transform="translate(125.493287, 608.928035) rotate(-13.000000) translate(-125.493287, -608.928035) "></path>
                    <g id="Group-3" transform="translate(93.619757, 596.334683) scale(-1, 1) rotate(14.000000) translate(-93.619757, -596.334683) translate(61.119757, 556.334683)" fill-rule="nonzero">
                        <ellipse id="Oval" fill="#231E28" cx="32.5" cy="41" rx="32.5" ry="31"></ellipse>
                        <path d="M1,9 L4.20820843,44.306252" id="Path-57" stroke="#231E28" stroke-width="3"></path>
                        <polyline id="Path-57-Copy-2" stroke="#231E28" stroke-width="3" points="19.8122229 63 19.8122229 79.5 15 79.7031"></polyline>
                        <polyline id="Path-57-Copy-3" stroke="#231E28" stroke-width="3" points="45.8122229 63 45.8122229 79.5 41 79.7031"></polyline>
                        <path d="M59,0 L62.2082084,35.306252" id="Path-57-Copy" stroke="#231E28" stroke-width="3"></path>
                        <path d="M17.0469929,47.306252 C18.2867893,52.4354173 20.8904315,55 24.8579194,55 C28.8254073,55 32.5381759,52 35.9962253,46" id="Path-58" stroke="#FFFFFF" fill="#FFFFFF"></path>
                        <ellipse id="Oval" stroke="#FFFFFF" fill="#FFFFFF" cx="19.5" cy="29.5" rx="2.5" ry="3.5"></ellipse>
                        <ellipse id="Oval-Copy-8" stroke="#FFFFFF" fill="#FFFFFF" cx="37.2917916" cy="29.5" rx="2.5" ry="3.5"></ellipse>
                    </g>
                    <path d="M146.276917,101.521661 C191.120997,75.0498012 150.849586,78.6493643 195.693665,105.121225 C217.533327,118.013372 235.912984,563.503615 236.480235,580.443654 C237.077739,598.28714 223.065761,624.303507 200.061344,637.883219 C155.217264,664.35508 101.698331,680.132442 56.8542514,653.660582 C31.4977004,638.692384 14.4619298,636.407404 17.7805431,616.834229 C21.0991564,597.261054 126.789587,113.103081 146.276917,101.521661 Z" id="Path-Copy" fill="#B8E986" opacity="0.369721912"></path>
                    <path d="M93.6328886,55.8538952 C138.476968,29.3820349 211.12372,29.3820349 255.9678,55.8538952 C300.811879,82.3257555 300.811879,125.432166 255.9678,151.904026 C211.12372,178.375886 138.476968,178.375886 93.6328886,151.904026 C48.7888094,125.432166 48.7892649,82.50469 93.6328886,55.8538952 Z" id="Path" fill="#324D5B"></path>
                    <path d="M263.322277,144.987808 C218.478198,171.459668 145.831446,171.459668 100.987366,144.987808 C64.7534851,123.523843 57.7578416,91.5072838 79.8209901,65.9296419 C49.5065347,92.4015022 54.170297,128.711127 93.6328317,152.142463 C138.476911,178.614323 211.123663,178.614323 255.967743,152.142463 C264.577941,146.955179 271.573584,141.231546 276.954673,135.150498 C273.008238,138.548891 268.523921,141.768349 263.322277,144.987808 Z" id="Path" fill="#2D4552"></path>
                    <path d="M174.889782,0.286567686 C214.531762,0.286567686 246.639762,32.3031266 246.639762,71.8322096 C246.639762,111.361293 214.531762,129.068996 174.889782,129.068996 C135.247802,129.068996 103.139802,111.361293 103.139802,71.8322096 C103.139802,32.3031266 135.247802,0.286567686 174.889782,0.286567686 Z" id="Path" fill="#E4E7E7"></path>
                    <path d="M103.139802,71.8322096 C103.139802,111.182358 135.068812,128.890061 174.351901,129.068996 L174.890238,129.068996 C147.156609,119.622707 133.289794,91.7091564 133.289794,45.3283427 C133.289794,21.1070909 147.156609,6.09316587 174.890238,0.286567686 C135.247802,0.286567686 103.139802,32.3031266 103.139802,71.8322096 Z" id="Path" fill="#D8DBDB"></path>
                </g>
            </g>
        </g>
    </g>
</svg>