<?xml version="1.0" encoding="UTF-8"?>
<svg width="441px" height="104px" viewBox="0 0 441 104" version="1.1" xmlns="http://www.w3.org/2000/svg" xmlns:xlink="http://www.w3.org/1999/xlink">
    <!-- Generator: Sketch 52.6 (67491) - http://www.bohemiancoding.com/sketch -->
    <title>Group</title>
    <desc>Created with Sketch.</desc>
    <defs>
        <filter x="-46.9%" y="-19.5%" width="193.9%" height="139.0%" filterUnits="objectBoundingBox" id="filter-1">
            <feOffset dx="0" dy="2" in="SourceAlpha" result="shadowOffsetOuter1"></feOffset>
            <feGaussianBlur stdDeviation="5" in="shadowOffsetOuter1" result="shadowBlurOuter1"></feGaussianBlur>
            <feColorMatrix values="0 0 0 0 0   0 0 0 0 0   0 0 0 0 0  0 0 0 0.13 0" type="matrix" in="shadowBlurOuter1" result="shadowMatrixOuter1"></feColorMatrix>
            <feMerge>
                <feMergeNode in="shadowMatrixOuter1"></feMergeNode>
                <feMergeNode in="SourceGraphic"></feMergeNode>
            </feMerge>
        </filter>
    </defs>
    <g id="Page-1" stroke="none" stroke-width="1" fill="none" fill-rule="evenodd">
        <g id="02_01_superluminar_workshops" transform="translate(-305.000000, -352.000000)" fill-rule="nonzero">
            <g id="workshop_rockets" transform="translate(232.000000, 288.000000)">
                <g id="workshop_1" transform="translate(73.000000, 64.000000)">
                    <g id="card">
                        <g id="Group">
                            <path d="M253,23 C276.766476,37.494798 292.11417,46.9750847 299.043082,51.4408602 C292.584677,55.4915985 277.236983,64.9718852 253,79.8817204" id="seil" stroke="#03FFB7" stroke-width="3" stroke-linecap="round" stroke-linejoin="round"></path>
                            <path d="M91.2470352,-76.7217456 L164.278257,-76.7217468 C173.667098,-76.7217471 181.278257,-69.110588 181.278257,-59.7217472 C181.278257,-59.721747 181.278257,-59.7217467 181.278257,-59.7217465 L181.278255,111.284568 C181.278255,114.711582 180.2425,118.058586 178.306837,120.886594 C151.003594,160.7767 134.974019,180.721752 130.218113,180.721752 C125.465808,180.721752 108.873717,160.806892 80.4418394,120.977173 L80.4418383,120.977173 C78.3842649,118.094755 77.2782512,114.641707 77.2782512,111.100246 L77.2782512,-62.7529624 C77.2782512,-70.4677083 83.5322884,-76.7217456 91.2470343,-76.7217456 C91.2470346,-76.7217456 91.247035,-76.7217456 91.2470352,-76.7217456 Z" id="card" fill="#F9F9F9" transform="translate(129.278254, 52.000003) rotate(-270.000000) translate(-129.278254, -52.000003) "></path>
                            <g id="rocket" filter="url(#filter-1)" transform="translate(373.000000, 51.500000) rotate(-270.000000) translate(-373.000000, -51.500000) translate(348.500000, -7.500000)">
                                <g id="Group-3-Copy" transform="translate(24.500000, 46.500000) rotate(-360.000000) translate(-24.500000, -46.500000) translate(-0.000000, 0.000000)">
                                    <path d="M35.8141282,56.9423289 C30.094078,59.5295312 26.926906,68.3008909 26.937179,74.2771774 C26.947452,80.253464 28.2049761,90.1365374 28.9723905,91.0749472 C29.484,91.7005537 30.6990142,91.7256208 32.617433,91.1501485 C31.303477,86.282039 31.6517533,81.6705322 33.662262,77.3156283 C35.6727707,72.9607244 39.9017858,69.7525412 46.3493073,67.6910789 C43.1392214,58.800444 39.627495,55.2175274 35.8141282,56.9423289 Z" id="Path-51" fill="#FFFFFF" transform="translate(36.643231, 74.042848) scale(-1, 1) rotate(-8.000000) translate(-36.643231, -74.042848) "></path>
                                    <path d="M11.4310205,57.0335238 C5.71097028,59.6207261 2.54379823,68.3920859 2.55407123,74.3683724 C2.56434423,80.3446589 3.82186835,90.2277324 4.58928272,91.1661421 C5.10089229,91.7917486 6.31590648,91.8168157 8.23432529,91.2413435 C6.92036926,86.3732339 7.26864559,81.7617272 9.27915428,77.4068233 C11.289663,73.0519193 15.5186781,69.8437362 21.9661996,67.7822739 C18.7561136,58.891639 15.2443873,55.3087223 11.4310205,57.0335238 Z" id="Path-51" fill="#FFFFFF" transform="translate(12.260123, 74.134043) rotate(-8.000000) translate(-12.260123, -74.134043) "></path>
                                    <path d="M33,78.912549 C34.6728391,66.5794781 49.8686184,20.2298222 25.1452714,0.298742138 C-1.92529286,20.2298222 13.3736224,66.3627624 16.2364488,78.912549 C23.4735781,78.2641243 25.8480494,78.2641243 33,78.912549 Z" id="Oval" fill="#FFFFFF"></path>
                                    <path d="M38,23.5726956 C37.1135753,15.2758074 31.52882,5.05326837 25.4964331,-4.12203605e-11 C18.3624416,5.45790182 12.6429509,12.1018037 10.6986248,23.9162253 C19.778572,27.0157435 29.673075,26.4343204 38,23.5726956 Z" id="Oval" fill="#03FFB7"></path>
                                </g>
                                <ellipse id="Oval" stroke="#03FFB7" stroke-width="1.4" fill="#03FFB7" cx="24.6512346" cy="39.9984277" rx="6.50308642" ry="6.42295597"></ellipse>
                                <path d="M25,117.469844 C29.418278,117.469844 33,93.418278 33,89 C33,84.581722 29.418278,83.3341912 25,83.3341912 C20.581722,83.3341912 17,84.581722 17,89 C17,93.418278 20.581722,117.469844 25,117.469844 Z" id="Oval" fill="#C92E4C"></path>
                                <path d="M25,106.135653 C27.7614237,106.135653 30,91.9483167 30,89.3420999 C30,86.735883 27.7614237,86 25,86 C22.2385763,86 20,86.735883 20,89.3420999 C20,91.9483167 22.2385763,106.135653 25,106.135653 Z" id="Oval" fill="#FF3B61"></path>
                            </g>
                        </g>
                    </g>
                </g>
            </g>
        </g>
    </g>
</svg>